<?xml version="1.0" encoding="utf-8" standalone="no"?>
<!DOCTYPE svg PUBLIC "-//W3C//DTD SVG 1.1//EN"
  "http://www.w3.org/Graphics/SVG/1.1/DTD/svg11.dtd">
<svg xmlns:xlink="http://www.w3.org/1999/xlink" width="607.820312pt" height="386.034375pt" viewBox="0 0 607.820312 386.034375" xmlns="http://www.w3.org/2000/svg" version="1.1">
 <metadata>
  <rdf:RDF xmlns:dc="http://purl.org/dc/elements/1.1/" xmlns:cc="http://creativecommons.org/ns#" xmlns:rdf="http://www.w3.org/1999/02/22-rdf-syntax-ns#">
   <cc:Work>
    <dc:type rdf:resource="http://purl.org/dc/dcmitype/StillImage"/>
    <dc:date>2022-10-17T14:36:15.816301</dc:date>
    <dc:format>image/svg+xml</dc:format>
    <dc:creator>
     <cc:Agent>
      <dc:title>Matplotlib v3.5.1, https://matplotlib.org/</dc:title>
     </cc:Agent>
    </dc:creator>
   </cc:Work>
  </rdf:RDF>
 </metadata>
 <defs>
  <style type="text/css">*{stroke-linejoin: round; stroke-linecap: butt}</style>
 </defs>
 <g id="figure_1">
  <g id="patch_1">
   <path d="M 0 386.034375 
L 607.820312 386.034375 
L 607.820312 0 
L 0 0 
L 0 386.034375 
z
" style="fill: none"/>
  </g>
  <g id="axes_1">
   <g id="patch_2">
    <path d="M 42.620313 348.478125 
L 600.620312 348.478125 
L 600.620312 22.318125 
L 42.620313 22.318125 
z
" style="fill: #ffffff"/>
   </g>
   <g id="PolyCollection_1">
    <defs>
     <path id="me12be6f3e2" d="M 137.118185 -104.568622 
L 134.12244 -104.568622 
L 133.760794 -106.510157 
L 133.335906 -108.451691 
L 132.843122 -110.393226 
L 132.279047 -112.334761 
L 131.641954 -114.276296 
L 130.93217 -116.217831 
L 130.152424 -118.159366 
L 129.308116 -120.100901 
L 128.407483 -122.042436 
L 127.461631 -123.98397 
L 126.484422 -125.925505 
L 125.492181 -127.86704 
L 124.503263 -129.808575 
L 123.537447 -131.75011 
L 122.615219 -133.691645 
L 121.75696 -135.63318 
L 120.982094 -137.574715 
L 120.308248 -139.516249 
L 119.750465 -141.457784 
L 119.320538 -143.399319 
L 119.026506 -145.340854 
L 118.87232 -147.282389 
L 118.857741 -149.223924 
L 118.978427 -151.165459 
L 119.226232 -153.106994 
L 119.589673 -155.048528 
L 120.054531 -156.990063 
L 120.604552 -158.931598 
L 121.222176 -160.873133 
L 121.889276 -162.814668 
L 122.587844 -164.756203 
L 123.300591 -166.697738 
L 124.011442 -168.639273 
L 124.705904 -170.580807 
L 125.371306 -172.522342 
L 125.996901 -174.463877 
L 126.573864 -176.405412 
L 127.095182 -178.346947 
L 127.555462 -180.288482 
L 127.950678 -182.230017 
L 128.277884 -184.171552 
L 128.53489 -186.113086 
L 128.719936 -188.054621 
L 128.831366 -189.996156 
L 128.867308 -191.937691 
L 128.825364 -193.879226 
L 128.702324 -195.820761 
L 128.493883 -197.762296 
L 128.194397 -199.703831 
L 127.796652 -201.645365 
L 127.291679 -203.5869 
L 126.668622 -205.528435 
L 125.914677 -207.46997 
L 125.015135 -209.411505 
L 123.953553 -211.35304 
L 122.712096 -213.294575 
L 121.272063 -215.236109 
L 119.614647 -217.177644 
L 117.721922 -219.119179 
L 115.578068 -221.060714 
L 113.170809 -223.002249 
L 110.493017 -224.943784 
L 107.544408 -226.885319 
L 104.333228 -228.826854 
L 100.877802 -230.768388 
L 97.207819 -232.709923 
L 93.365182 -234.651458 
L 89.404309 -236.592993 
L 85.391749 -238.534528 
L 81.405034 -240.476063 
L 77.530735 -242.417598 
L 73.861751 -244.359133 
L 70.493908 -246.300667 
L 67.522045 -248.242202 
L 65.035782 -250.183737 
L 63.115228 -252.125272 
L 61.82693 -254.066807 
L 61.220313 -256.008342 
L 61.324894 -257.949877 
L 62.148484 -259.891412 
L 63.676491 -261.832946 
L 65.872432 -263.774481 
L 68.679584 -265.716016 
L 72.023691 -267.657551 
L 75.816528 -269.599086 
L 79.960072 -271.540621 
L 84.351 -273.482156 
L 88.88522 -275.423691 
L 93.462144 -277.365225 
L 97.98847 -279.30676 
L 102.381276 -281.248295 
L 106.570295 -283.18983 
L 110.499323 -285.131365 
L 114.126761 -287.0729 
L 117.425373 -289.014435 
L 120.381367 -290.95597 
L 122.992939 -292.897504 
L 125.268473 -294.839039 
L 127.224517 -296.780574 
L 144.016108 -296.780574 
L 144.016108 -296.780574 
L 145.972152 -294.839039 
L 148.247686 -292.897504 
L 150.859258 -290.95597 
L 153.815252 -289.014435 
L 157.113864 -287.0729 
L 160.741302 -285.131365 
L 164.67033 -283.18983 
L 168.859349 -281.248295 
L 173.252155 -279.30676 
L 177.778481 -277.365225 
L 182.355405 -275.423691 
L 186.889625 -273.482156 
L 191.280553 -271.540621 
L 195.424097 -269.599086 
L 199.216934 -267.657551 
L 202.561041 -265.716016 
L 205.368193 -263.774481 
L 207.564134 -261.832946 
L 209.092141 -259.891412 
L 209.915731 -257.949877 
L 210.020313 -256.008342 
L 209.413695 -254.066807 
L 208.125397 -252.125272 
L 206.204843 -250.183737 
L 203.71858 -248.242202 
L 200.746717 -246.300667 
L 197.378874 -244.359133 
L 193.70989 -242.417598 
L 189.835591 -240.476063 
L 185.848876 -238.534528 
L 181.836316 -236.592993 
L 177.875443 -234.651458 
L 174.032806 -232.709923 
L 170.362823 -230.768388 
L 166.907397 -228.826854 
L 163.696217 -226.885319 
L 160.747608 -224.943784 
L 158.069816 -223.002249 
L 155.662557 -221.060714 
L 153.518703 -219.119179 
L 151.625978 -217.177644 
L 149.968562 -215.236109 
L 148.528529 -213.294575 
L 147.287072 -211.35304 
L 146.22549 -209.411505 
L 145.325948 -207.46997 
L 144.572003 -205.528435 
L 143.948946 -203.5869 
L 143.443973 -201.645365 
L 143.046228 -199.703831 
L 142.746742 -197.762296 
L 142.538301 -195.820761 
L 142.415261 -193.879226 
L 142.373317 -191.937691 
L 142.409259 -189.996156 
L 142.520689 -188.054621 
L 142.705735 -186.113086 
L 142.962741 -184.171552 
L 143.289947 -182.230017 
L 143.685163 -180.288482 
L 144.145443 -178.346947 
L 144.666761 -176.405412 
L 145.243724 -174.463877 
L 145.869319 -172.522342 
L 146.534721 -170.580807 
L 147.229183 -168.639273 
L 147.940034 -166.697738 
L 148.652781 -164.756203 
L 149.351349 -162.814668 
L 150.018449 -160.873133 
L 150.636073 -158.931598 
L 151.186094 -156.990063 
L 151.650952 -155.048528 
L 152.014393 -153.106994 
L 152.262198 -151.165459 
L 152.382884 -149.223924 
L 152.368305 -147.282389 
L 152.214119 -145.340854 
L 151.920087 -143.399319 
L 151.49016 -141.457784 
L 150.932377 -139.516249 
L 150.258531 -137.574715 
L 149.483665 -135.63318 
L 148.625406 -133.691645 
L 147.703178 -131.75011 
L 146.737362 -129.808575 
L 145.748444 -127.86704 
L 144.756203 -125.925505 
L 143.778994 -123.98397 
L 142.833142 -122.042436 
L 141.932509 -120.100901 
L 141.088201 -118.159366 
L 140.308455 -116.217831 
L 139.598671 -114.276296 
L 138.961578 -112.334761 
L 138.397503 -110.393226 
L 137.904719 -108.451691 
L 137.479831 -106.510157 
L 137.118185 -104.568622 
z
" style="stroke: #3d3d3d; stroke-width: 1.5"/>
    </defs>
    <g clip-path="url(#p7701e79019)">
     <use xlink:href="#me12be6f3e2" x="0" y="386.034375" style="fill: #3274a1; stroke: #3d3d3d; stroke-width: 1.5"/>
    </g>
   </g>
   <g id="PolyCollection_2">
    <defs>
     <path id="m00a04a85c1" d="M 325.982226 -52.381705 
L 317.258399 -52.381705 
L 316.64346 -55.376746 
L 315.967295 -58.371787 
L 315.228063 -61.366829 
L 314.424577 -64.36187 
L 313.556415 -67.356911 
L 312.624022 -70.351952 
L 311.628809 -73.346994 
L 310.57323 -76.342035 
L 309.460856 -79.337076 
L 308.296421 -82.332118 
L 307.085845 -85.327159 
L 305.836241 -88.3222 
L 304.555883 -91.317242 
L 303.254145 -94.312283 
L 301.94142 -97.307324 
L 300.628991 -100.302366 
L 299.328885 -103.297407 
L 298.053694 -106.292448 
L 296.816368 -109.28749 
L 295.629992 -112.282531 
L 294.507543 -115.277572 
L 293.461638 -118.272614 
L 292.504278 -121.267655 
L 291.646593 -124.262696 
L 290.898599 -127.257738 
L 290.268973 -130.252779 
L 289.764849 -133.24782 
L 289.391643 -136.242862 
L 289.152921 -139.237903 
L 289.050298 -142.232944 
L 289.083385 -145.227986 
L 289.249785 -148.223027 
L 289.545126 -151.218068 
L 289.963149 -154.21311 
L 290.495838 -157.208151 
L 291.133582 -160.203192 
L 291.865386 -163.198233 
L 292.6791 -166.193275 
L 293.561682 -169.188316 
L 294.49947 -172.183357 
L 295.478464 -175.178399 
L 296.484618 -178.17344 
L 297.504118 -181.168481 
L 298.523647 -184.163523 
L 299.53064 -187.158564 
L 300.513504 -190.153605 
L 301.461814 -193.148647 
L 302.366475 -196.143688 
L 303.219849 -199.138729 
L 304.015837 -202.133771 
L 304.749933 -205.128812 
L 305.419231 -208.123853 
L 306.022401 -211.118895 
L 306.559623 -214.113936 
L 307.032501 -217.108977 
L 307.443936 -220.104019 
L 307.797988 -223.09906 
L 308.099708 -226.094101 
L 308.354961 -229.089143 
L 308.570245 -232.084184 
L 308.752493 -235.079225 
L 308.908887 -238.074267 
L 309.046671 -241.069308 
L 309.172979 -244.064349 
L 309.294667 -247.05939 
L 309.41817 -250.054432 
L 309.549372 -253.049473 
L 309.693504 -256.044514 
L 309.855053 -259.039556 
L 310.037709 -262.034597 
L 310.244321 -265.029638 
L 310.476885 -268.02468 
L 310.736551 -271.019721 
L 311.023652 -274.014762 
L 311.337746 -277.009804 
L 311.677681 -280.004845 
L 312.041672 -282.999886 
L 312.427379 -285.994928 
L 312.832007 -288.989969 
L 313.252402 -291.98501 
L 313.685145 -294.980052 
L 314.126657 -297.975093 
L 314.573288 -300.970134 
L 315.021407 -303.965176 
L 315.467482 -306.960217 
L 315.908151 -309.955258 
L 316.340283 -312.9503 
L 316.761028 -315.945341 
L 317.167855 -318.940382 
L 317.558576 -321.935424 
L 317.93137 -324.930465 
L 318.284779 -327.925506 
L 318.617711 -330.920548 
L 318.929426 -333.915589 
L 319.219515 -336.91063 
L 319.487879 -339.905671 
L 319.734696 -342.900713 
L 319.960392 -345.895754 
L 320.165605 -348.890795 
L 323.07502 -348.890795 
L 323.07502 -348.890795 
L 323.280233 -345.895754 
L 323.505929 -342.900713 
L 323.752746 -339.905671 
L 324.02111 -336.91063 
L 324.311199 -333.915589 
L 324.622914 -330.920548 
L 324.955846 -327.925506 
L 325.309255 -324.930465 
L 325.682049 -321.935424 
L 326.07277 -318.940382 
L 326.479597 -315.945341 
L 326.900342 -312.9503 
L 327.332474 -309.955258 
L 327.773143 -306.960217 
L 328.219218 -303.965176 
L 328.667337 -300.970134 
L 329.113968 -297.975093 
L 329.55548 -294.980052 
L 329.988223 -291.98501 
L 330.408618 -288.989969 
L 330.813246 -285.994928 
L 331.198953 -282.999886 
L 331.562944 -280.004845 
L 331.902879 -277.009804 
L 332.216973 -274.014762 
L 332.504074 -271.019721 
L 332.76374 -268.02468 
L 332.996304 -265.029638 
L 333.202916 -262.034597 
L 333.385572 -259.039556 
L 333.547121 -256.044514 
L 333.691253 -253.049473 
L 333.822455 -250.054432 
L 333.945958 -247.05939 
L 334.067646 -244.064349 
L 334.193954 -241.069308 
L 334.331738 -238.074267 
L 334.488132 -235.079225 
L 334.67038 -232.084184 
L 334.885664 -229.089143 
L 335.140917 -226.094101 
L 335.442637 -223.09906 
L 335.796689 -220.104019 
L 336.208124 -217.108977 
L 336.681002 -214.113936 
L 337.218224 -211.118895 
L 337.821394 -208.123853 
L 338.490692 -205.128812 
L 339.224788 -202.133771 
L 340.020776 -199.138729 
L 340.87415 -196.143688 
L 341.778811 -193.148647 
L 342.727121 -190.153605 
L 343.709985 -187.158564 
L 344.716978 -184.163523 
L 345.736507 -181.168481 
L 346.756007 -178.17344 
L 347.762161 -175.178399 
L 348.741155 -172.183357 
L 349.678943 -169.188316 
L 350.561525 -166.193275 
L 351.375239 -163.198233 
L 352.107043 -160.203192 
L 352.744787 -157.208151 
L 353.277476 -154.21311 
L 353.695499 -151.218068 
L 353.99084 -148.223027 
L 354.15724 -145.227986 
L 354.190327 -142.232944 
L 354.087704 -139.237903 
L 353.848982 -136.242862 
L 353.475776 -133.24782 
L 352.971652 -130.252779 
L 352.342026 -127.257738 
L 351.594032 -124.262696 
L 350.736347 -121.267655 
L 349.778987 -118.272614 
L 348.733082 -115.277572 
L 347.610633 -112.282531 
L 346.424257 -109.28749 
L 345.186931 -106.292448 
L 343.91174 -103.297407 
L 342.611634 -100.302366 
L 341.299205 -97.307324 
L 339.98648 -94.312283 
L 338.684742 -91.317242 
L 337.404384 -88.3222 
L 336.15478 -85.327159 
L 334.944204 -82.332118 
L 333.779769 -79.337076 
L 332.667395 -76.342035 
L 331.611816 -73.346994 
L 330.616603 -70.351952 
L 329.68421 -67.356911 
L 328.816048 -64.36187 
L 328.012562 -61.366829 
L 327.27333 -58.371787 
L 326.597165 -55.376746 
L 325.982226 -52.381705 
z
" style="stroke: #3d3d3d; stroke-width: 1.5"/>
    </defs>
    <g clip-path="url(#p7701e79019)">
     <use xlink:href="#m00a04a85c1" x="0" y="386.034375" style="fill: #e1812c; stroke: #3d3d3d; stroke-width: 1.5"/>
    </g>
   </g>
   <g id="PolyCollection_3">
    <defs>
     <path id="m274dbc5151" d="M 509.553098 -87.847024 
L 505.687527 -87.847024 
L 505.311366 -90.122376 
L 504.880886 -92.397728 
L 504.392367 -94.67308 
L 503.842678 -96.948433 
L 503.229469 -99.223785 
L 502.551362 -101.499137 
L 501.808131 -103.774489 
L 501.000869 -106.049842 
L 500.132126 -108.325194 
L 499.206018 -110.600546 
L 498.228273 -112.875898 
L 497.206242 -115.15125 
L 496.148833 -117.426603 
L 495.06639 -119.701955 
L 493.970496 -121.977307 
L 492.873718 -124.252659 
L 491.789295 -126.528011 
L 490.73077 -128.803364 
L 489.711592 -131.078716 
L 488.744701 -133.354068 
L 487.842104 -135.62942 
L 487.014479 -137.904773 
L 486.270811 -140.180125 
L 485.618086 -142.455477 
L 485.061063 -144.730829 
L 484.602128 -147.006181 
L 484.241247 -149.281534 
L 483.976013 -151.556886 
L 483.801797 -153.832238 
L 483.711983 -156.10759 
L 483.698279 -158.382943 
L 483.751094 -160.658295 
L 483.85994 -162.933647 
L 484.013858 -165.208999 
L 484.201828 -167.484351 
L 484.413148 -169.759704 
L 484.637749 -172.035056 
L 484.866449 -174.310408 
L 485.091107 -176.58576 
L 485.304699 -178.861112 
L 485.501288 -181.136465 
L 485.675925 -183.411817 
L 485.824462 -185.687169 
L 485.943328 -187.962521 
L 486.029261 -190.237874 
L 486.079052 -192.513226 
L 486.089294 -194.788578 
L 486.056195 -197.06393 
L 485.975453 -199.339282 
L 485.842223 -201.614635 
L 485.65118 -203.889987 
L 485.396697 -206.165339 
L 485.073115 -208.440691 
L 484.675111 -210.716044 
L 484.198136 -212.991396 
L 483.638898 -215.266748 
L 482.995868 -217.5421 
L 482.269762 -219.817452 
L 481.463979 -222.092805 
L 480.58495 -224.368157 
L 479.642368 -226.643509 
L 478.649285 -228.918861 
L 477.622044 -231.194213 
L 476.580044 -233.469566 
L 475.545343 -235.744918 
L 474.542094 -238.02027 
L 473.595857 -240.295622 
L 472.732789 -242.570975 
L 471.97877 -244.846327 
L 471.358493 -247.121679 
L 470.894567 -249.397031 
L 470.606671 -251.672383 
L 470.510809 -253.947736 
L 470.618697 -256.223088 
L 470.937306 -258.49844 
L 471.468596 -260.773792 
L 472.209443 -263.049145 
L 473.151759 -265.324497 
L 474.2828 -267.599849 
L 475.585642 -269.875201 
L 477.039806 -272.150553 
L 478.621981 -274.425906 
L 480.306833 -276.701258 
L 482.067839 -278.97661 
L 483.878127 -281.251962 
L 485.711271 -283.527315 
L 487.542021 -285.802667 
L 489.346935 -288.078019 
L 491.104898 -290.353371 
L 492.797513 -292.628723 
L 494.409369 -294.904076 
L 495.928167 -297.179428 
L 497.344735 -299.45478 
L 498.652933 -301.730132 
L 499.849465 -304.005484 
L 500.933615 -306.280837 
L 501.906938 -308.556189 
L 502.77291 -310.831541 
L 503.536565 -313.106893 
L 511.70406 -313.106893 
L 511.70406 -313.106893 
L 512.467715 -310.831541 
L 513.333687 -308.556189 
L 514.30701 -306.280837 
L 515.39116 -304.005484 
L 516.587692 -301.730132 
L 517.89589 -299.45478 
L 519.312458 -297.179428 
L 520.831256 -294.904076 
L 522.443112 -292.628723 
L 524.135727 -290.353371 
L 525.89369 -288.078019 
L 527.698604 -285.802667 
L 529.529354 -283.527315 
L 531.362498 -281.251962 
L 533.172786 -278.97661 
L 534.933792 -276.701258 
L 536.618644 -274.425906 
L 538.200819 -272.150553 
L 539.654983 -269.875201 
L 540.957825 -267.599849 
L 542.088866 -265.324497 
L 543.031182 -263.049145 
L 543.772029 -260.773792 
L 544.303319 -258.49844 
L 544.621928 -256.223088 
L 544.729816 -253.947736 
L 544.633954 -251.672383 
L 544.346058 -249.397031 
L 543.882132 -247.121679 
L 543.261855 -244.846327 
L 542.507836 -242.570975 
L 541.644768 -240.295622 
L 540.698531 -238.02027 
L 539.695282 -235.744918 
L 538.660581 -233.469566 
L 537.618581 -231.194213 
L 536.59134 -228.918861 
L 535.598257 -226.643509 
L 534.655675 -224.368157 
L 533.776646 -222.092805 
L 532.970863 -219.817452 
L 532.244757 -217.5421 
L 531.601727 -215.266748 
L 531.042489 -212.991396 
L 530.565514 -210.716044 
L 530.16751 -208.440691 
L 529.843928 -206.165339 
L 529.589445 -203.889987 
L 529.398402 -201.614635 
L 529.265172 -199.339282 
L 529.18443 -197.06393 
L 529.151331 -194.788578 
L 529.161573 -192.513226 
L 529.211364 -190.237874 
L 529.297297 -187.962521 
L 529.416163 -185.687169 
L 529.5647 -183.411817 
L 529.739337 -181.136465 
L 529.935926 -178.861112 
L 530.149518 -176.58576 
L 530.374176 -174.310408 
L 530.602876 -172.035056 
L 530.827477 -169.759704 
L 531.038797 -167.484351 
L 531.226767 -165.208999 
L 531.380685 -162.933647 
L 531.489531 -160.658295 
L 531.542346 -158.382943 
L 531.528642 -156.10759 
L 531.438828 -153.832238 
L 531.264612 -151.556886 
L 530.999378 -149.281534 
L 530.638497 -147.006181 
L 530.179562 -144.730829 
L 529.622539 -142.455477 
L 528.969814 -140.180125 
L 528.226146 -137.904773 
L 527.398521 -135.62942 
L 526.495924 -133.354068 
L 525.529033 -131.078716 
L 524.509855 -128.803364 
L 523.45133 -126.528011 
L 522.366907 -124.252659 
L 521.270129 -121.977307 
L 520.174235 -119.701955 
L 519.091792 -117.426603 
L 518.034383 -115.15125 
L 517.012352 -112.875898 
L 516.034607 -110.600546 
L 515.108499 -108.325194 
L 514.239756 -106.049842 
L 513.432494 -103.774489 
L 512.689263 -101.499137 
L 512.011156 -99.223785 
L 511.397947 -96.948433 
L 510.848258 -94.67308 
L 510.359739 -92.397728 
L 509.929259 -90.122376 
L 509.553098 -87.847024 
z
" style="stroke: #3d3d3d; stroke-width: 1.5"/>
    </defs>
    <g clip-path="url(#p7701e79019)">
     <use xlink:href="#m274dbc5151" x="0" y="386.034375" style="fill: #3a923a; stroke: #3d3d3d; stroke-width: 1.5"/>
    </g>
   </g>
   <g id="matplotlib.axis_1">
    <g id="xtick_1">
     <g id="line2d_1">
      <defs>
       <path id="m4c9eb8f8ef" d="M 0 0 
L 0 3.5 
" style="stroke: #000000; stroke-width: 0.8"/>
      </defs>
      <g>
       <use xlink:href="#m4c9eb8f8ef" x="135.620313" y="348.478125" style="stroke: #000000; stroke-width: 0.8"/>
      </g>
     </g>
     <g id="text_1">
      <!-- 0 -->
      <g transform="translate(132.439063 363.076562)scale(0.1 -0.1)">
       <defs>
        <path id="DejaVuSans-30" d="M 2034 4250 
Q 1547 4250 1301 3770 
Q 1056 3291 1056 2328 
Q 1056 1369 1301 889 
Q 1547 409 2034 409 
Q 2525 409 2770 889 
Q 3016 1369 3016 2328 
Q 3016 3291 2770 3770 
Q 2525 4250 2034 4250 
z
M 2034 4750 
Q 2819 4750 3233 4129 
Q 3647 3509 3647 2328 
Q 3647 1150 3233 529 
Q 2819 -91 2034 -91 
Q 1250 -91 836 529 
Q 422 1150 422 2328 
Q 422 3509 836 4129 
Q 1250 4750 2034 4750 
z
" transform="scale(0.015625)"/>
       </defs>
       <use xlink:href="#DejaVuSans-30"/>
      </g>
     </g>
    </g>
    <g id="xtick_2">
     <g id="line2d_2">
      <g>
       <use xlink:href="#m4c9eb8f8ef" x="321.620313" y="348.478125" style="stroke: #000000; stroke-width: 0.8"/>
      </g>
     </g>
     <g id="text_2">
      <!-- 1 -->
      <g transform="translate(318.439063 363.076562)scale(0.1 -0.1)">
       <defs>
        <path id="DejaVuSans-31" d="M 794 531 
L 1825 531 
L 1825 4091 
L 703 3866 
L 703 4441 
L 1819 4666 
L 2450 4666 
L 2450 531 
L 3481 531 
L 3481 0 
L 794 0 
L 794 531 
z
" transform="scale(0.015625)"/>
       </defs>
       <use xlink:href="#DejaVuSans-31"/>
      </g>
     </g>
    </g>
    <g id="xtick_3">
     <g id="line2d_3">
      <g>
       <use xlink:href="#m4c9eb8f8ef" x="507.620313" y="348.478125" style="stroke: #000000; stroke-width: 0.8"/>
      </g>
     </g>
     <g id="text_3">
      <!-- 2 -->
      <g transform="translate(504.439063 363.076562)scale(0.1 -0.1)">
       <defs>
        <path id="DejaVuSans-32" d="M 1228 531 
L 3431 531 
L 3431 0 
L 469 0 
L 469 531 
Q 828 903 1448 1529 
Q 2069 2156 2228 2338 
Q 2531 2678 2651 2914 
Q 2772 3150 2772 3378 
Q 2772 3750 2511 3984 
Q 2250 4219 1831 4219 
Q 1534 4219 1204 4116 
Q 875 4013 500 3803 
L 500 4441 
Q 881 4594 1212 4672 
Q 1544 4750 1819 4750 
Q 2544 4750 2975 4387 
Q 3406 4025 3406 3419 
Q 3406 3131 3298 2873 
Q 3191 2616 2906 2266 
Q 2828 2175 2409 1742 
Q 1991 1309 1228 531 
z
" transform="scale(0.015625)"/>
       </defs>
       <use xlink:href="#DejaVuSans-32"/>
      </g>
     </g>
    </g>
    <g id="text_4">
     <!-- Topic Number -->
     <g transform="translate(287.369531 376.754687)scale(0.1 -0.1)">
      <defs>
       <path id="DejaVuSans-54" d="M -19 4666 
L 3928 4666 
L 3928 4134 
L 2272 4134 
L 2272 0 
L 1638 0 
L 1638 4134 
L -19 4134 
L -19 4666 
z
" transform="scale(0.015625)"/>
       <path id="DejaVuSans-6f" d="M 1959 3097 
Q 1497 3097 1228 2736 
Q 959 2375 959 1747 
Q 959 1119 1226 758 
Q 1494 397 1959 397 
Q 2419 397 2687 759 
Q 2956 1122 2956 1747 
Q 2956 2369 2687 2733 
Q 2419 3097 1959 3097 
z
M 1959 3584 
Q 2709 3584 3137 3096 
Q 3566 2609 3566 1747 
Q 3566 888 3137 398 
Q 2709 -91 1959 -91 
Q 1206 -91 779 398 
Q 353 888 353 1747 
Q 353 2609 779 3096 
Q 1206 3584 1959 3584 
z
" transform="scale(0.015625)"/>
       <path id="DejaVuSans-70" d="M 1159 525 
L 1159 -1331 
L 581 -1331 
L 581 3500 
L 1159 3500 
L 1159 2969 
Q 1341 3281 1617 3432 
Q 1894 3584 2278 3584 
Q 2916 3584 3314 3078 
Q 3713 2572 3713 1747 
Q 3713 922 3314 415 
Q 2916 -91 2278 -91 
Q 1894 -91 1617 61 
Q 1341 213 1159 525 
z
M 3116 1747 
Q 3116 2381 2855 2742 
Q 2594 3103 2138 3103 
Q 1681 3103 1420 2742 
Q 1159 2381 1159 1747 
Q 1159 1113 1420 752 
Q 1681 391 2138 391 
Q 2594 391 2855 752 
Q 3116 1113 3116 1747 
z
" transform="scale(0.015625)"/>
       <path id="DejaVuSans-69" d="M 603 3500 
L 1178 3500 
L 1178 0 
L 603 0 
L 603 3500 
z
M 603 4863 
L 1178 4863 
L 1178 4134 
L 603 4134 
L 603 4863 
z
" transform="scale(0.015625)"/>
       <path id="DejaVuSans-63" d="M 3122 3366 
L 3122 2828 
Q 2878 2963 2633 3030 
Q 2388 3097 2138 3097 
Q 1578 3097 1268 2742 
Q 959 2388 959 1747 
Q 959 1106 1268 751 
Q 1578 397 2138 397 
Q 2388 397 2633 464 
Q 2878 531 3122 666 
L 3122 134 
Q 2881 22 2623 -34 
Q 2366 -91 2075 -91 
Q 1284 -91 818 406 
Q 353 903 353 1747 
Q 353 2603 823 3093 
Q 1294 3584 2113 3584 
Q 2378 3584 2631 3529 
Q 2884 3475 3122 3366 
z
" transform="scale(0.015625)"/>
       <path id="DejaVuSans-20" transform="scale(0.015625)"/>
       <path id="DejaVuSans-4e" d="M 628 4666 
L 1478 4666 
L 3547 763 
L 3547 4666 
L 4159 4666 
L 4159 0 
L 3309 0 
L 1241 3903 
L 1241 0 
L 628 0 
L 628 4666 
z
" transform="scale(0.015625)"/>
       <path id="DejaVuSans-75" d="M 544 1381 
L 544 3500 
L 1119 3500 
L 1119 1403 
Q 1119 906 1312 657 
Q 1506 409 1894 409 
Q 2359 409 2629 706 
Q 2900 1003 2900 1516 
L 2900 3500 
L 3475 3500 
L 3475 0 
L 2900 0 
L 2900 538 
Q 2691 219 2414 64 
Q 2138 -91 1772 -91 
Q 1169 -91 856 284 
Q 544 659 544 1381 
z
M 1991 3584 
L 1991 3584 
z
" transform="scale(0.015625)"/>
       <path id="DejaVuSans-6d" d="M 3328 2828 
Q 3544 3216 3844 3400 
Q 4144 3584 4550 3584 
Q 5097 3584 5394 3201 
Q 5691 2819 5691 2113 
L 5691 0 
L 5113 0 
L 5113 2094 
Q 5113 2597 4934 2840 
Q 4756 3084 4391 3084 
Q 3944 3084 3684 2787 
Q 3425 2491 3425 1978 
L 3425 0 
L 2847 0 
L 2847 2094 
Q 2847 2600 2669 2842 
Q 2491 3084 2119 3084 
Q 1678 3084 1418 2786 
Q 1159 2488 1159 1978 
L 1159 0 
L 581 0 
L 581 3500 
L 1159 3500 
L 1159 2956 
Q 1356 3278 1631 3431 
Q 1906 3584 2284 3584 
Q 2666 3584 2933 3390 
Q 3200 3197 3328 2828 
z
" transform="scale(0.015625)"/>
       <path id="DejaVuSans-62" d="M 3116 1747 
Q 3116 2381 2855 2742 
Q 2594 3103 2138 3103 
Q 1681 3103 1420 2742 
Q 1159 2381 1159 1747 
Q 1159 1113 1420 752 
Q 1681 391 2138 391 
Q 2594 391 2855 752 
Q 3116 1113 3116 1747 
z
M 1159 2969 
Q 1341 3281 1617 3432 
Q 1894 3584 2278 3584 
Q 2916 3584 3314 3078 
Q 3713 2572 3713 1747 
Q 3713 922 3314 415 
Q 2916 -91 2278 -91 
Q 1894 -91 1617 61 
Q 1341 213 1159 525 
L 1159 0 
L 581 0 
L 581 4863 
L 1159 4863 
L 1159 2969 
z
" transform="scale(0.015625)"/>
       <path id="DejaVuSans-65" d="M 3597 1894 
L 3597 1613 
L 953 1613 
Q 991 1019 1311 708 
Q 1631 397 2203 397 
Q 2534 397 2845 478 
Q 3156 559 3463 722 
L 3463 178 
Q 3153 47 2828 -22 
Q 2503 -91 2169 -91 
Q 1331 -91 842 396 
Q 353 884 353 1716 
Q 353 2575 817 3079 
Q 1281 3584 2069 3584 
Q 2775 3584 3186 3129 
Q 3597 2675 3597 1894 
z
M 3022 2063 
Q 3016 2534 2758 2815 
Q 2500 3097 2075 3097 
Q 1594 3097 1305 2825 
Q 1016 2553 972 2059 
L 3022 2063 
z
" transform="scale(0.015625)"/>
       <path id="DejaVuSans-72" d="M 2631 2963 
Q 2534 3019 2420 3045 
Q 2306 3072 2169 3072 
Q 1681 3072 1420 2755 
Q 1159 2438 1159 1844 
L 1159 0 
L 581 0 
L 581 3500 
L 1159 3500 
L 1159 2956 
Q 1341 3275 1631 3429 
Q 1922 3584 2338 3584 
Q 2397 3584 2469 3576 
Q 2541 3569 2628 3553 
L 2631 2963 
z
" transform="scale(0.015625)"/>
      </defs>
      <use xlink:href="#DejaVuSans-54"/>
      <use xlink:href="#DejaVuSans-6f" x="44.083984"/>
      <use xlink:href="#DejaVuSans-70" x="105.265625"/>
      <use xlink:href="#DejaVuSans-69" x="168.742188"/>
      <use xlink:href="#DejaVuSans-63" x="196.525391"/>
      <use xlink:href="#DejaVuSans-20" x="251.505859"/>
      <use xlink:href="#DejaVuSans-4e" x="283.292969"/>
      <use xlink:href="#DejaVuSans-75" x="358.097656"/>
      <use xlink:href="#DejaVuSans-6d" x="421.476562"/>
      <use xlink:href="#DejaVuSans-62" x="518.888672"/>
      <use xlink:href="#DejaVuSans-65" x="582.365234"/>
      <use xlink:href="#DejaVuSans-72" x="643.888672"/>
     </g>
    </g>
   </g>
   <g id="matplotlib.axis_2">
    <g id="ytick_1">
     <g id="line2d_4">
      <defs>
       <path id="m485503d89f" d="M 0 0 
L -3.5 0 
" style="stroke: #000000; stroke-width: 0.8"/>
      </defs>
      <g>
       <use xlink:href="#m485503d89f" x="42.620313" y="303.40358" style="stroke: #000000; stroke-width: 0.8"/>
      </g>
     </g>
     <g id="text_5">
      <!-- −2 -->
      <g transform="translate(20.878125 307.202799)scale(0.1 -0.1)">
       <defs>
        <path id="DejaVuSans-2212" d="M 678 2272 
L 4684 2272 
L 4684 1741 
L 678 1741 
L 678 2272 
z
" transform="scale(0.015625)"/>
       </defs>
       <use xlink:href="#DejaVuSans-2212"/>
       <use xlink:href="#DejaVuSans-32" x="83.789062"/>
      </g>
     </g>
    </g>
    <g id="ytick_2">
     <g id="line2d_5">
      <g>
       <use xlink:href="#m485503d89f" x="42.620313" y="244.406752" style="stroke: #000000; stroke-width: 0.8"/>
      </g>
     </g>
     <g id="text_6">
      <!-- −1 -->
      <g transform="translate(20.878125 248.205971)scale(0.1 -0.1)">
       <use xlink:href="#DejaVuSans-2212"/>
       <use xlink:href="#DejaVuSans-31" x="83.789062"/>
      </g>
     </g>
    </g>
    <g id="ytick_3">
     <g id="line2d_6">
      <g>
       <use xlink:href="#m485503d89f" x="42.620313" y="185.409924" style="stroke: #000000; stroke-width: 0.8"/>
      </g>
     </g>
     <g id="text_7">
      <!-- 0 -->
      <g transform="translate(29.257813 189.209143)scale(0.1 -0.1)">
       <use xlink:href="#DejaVuSans-30"/>
      </g>
     </g>
    </g>
    <g id="ytick_4">
     <g id="line2d_7">
      <g>
       <use xlink:href="#m485503d89f" x="42.620313" y="126.413097" style="stroke: #000000; stroke-width: 0.8"/>
      </g>
     </g>
     <g id="text_8">
      <!-- 1 -->
      <g transform="translate(29.257813 130.212315)scale(0.1 -0.1)">
       <use xlink:href="#DejaVuSans-31"/>
      </g>
     </g>
    </g>
    <g id="ytick_5">
     <g id="line2d_8">
      <g>
       <use xlink:href="#m485503d89f" x="42.620313" y="67.416269" style="stroke: #000000; stroke-width: 0.8"/>
      </g>
     </g>
     <g id="text_9">
      <!-- 2 -->
      <g transform="translate(29.257813 71.215488)scale(0.1 -0.1)">
       <use xlink:href="#DejaVuSans-32"/>
      </g>
     </g>
    </g>
    <g id="text_10">
     <!-- Sentiment score (Compound) -->
     <g transform="translate(14.798438 258.921562)rotate(-90)scale(0.1 -0.1)">
      <defs>
       <path id="DejaVuSans-53" d="M 3425 4513 
L 3425 3897 
Q 3066 4069 2747 4153 
Q 2428 4238 2131 4238 
Q 1616 4238 1336 4038 
Q 1056 3838 1056 3469 
Q 1056 3159 1242 3001 
Q 1428 2844 1947 2747 
L 2328 2669 
Q 3034 2534 3370 2195 
Q 3706 1856 3706 1288 
Q 3706 609 3251 259 
Q 2797 -91 1919 -91 
Q 1588 -91 1214 -16 
Q 841 59 441 206 
L 441 856 
Q 825 641 1194 531 
Q 1563 422 1919 422 
Q 2459 422 2753 634 
Q 3047 847 3047 1241 
Q 3047 1584 2836 1778 
Q 2625 1972 2144 2069 
L 1759 2144 
Q 1053 2284 737 2584 
Q 422 2884 422 3419 
Q 422 4038 858 4394 
Q 1294 4750 2059 4750 
Q 2388 4750 2728 4690 
Q 3069 4631 3425 4513 
z
" transform="scale(0.015625)"/>
       <path id="DejaVuSans-6e" d="M 3513 2113 
L 3513 0 
L 2938 0 
L 2938 2094 
Q 2938 2591 2744 2837 
Q 2550 3084 2163 3084 
Q 1697 3084 1428 2787 
Q 1159 2491 1159 1978 
L 1159 0 
L 581 0 
L 581 3500 
L 1159 3500 
L 1159 2956 
Q 1366 3272 1645 3428 
Q 1925 3584 2291 3584 
Q 2894 3584 3203 3211 
Q 3513 2838 3513 2113 
z
" transform="scale(0.015625)"/>
       <path id="DejaVuSans-74" d="M 1172 4494 
L 1172 3500 
L 2356 3500 
L 2356 3053 
L 1172 3053 
L 1172 1153 
Q 1172 725 1289 603 
Q 1406 481 1766 481 
L 2356 481 
L 2356 0 
L 1766 0 
Q 1100 0 847 248 
Q 594 497 594 1153 
L 594 3053 
L 172 3053 
L 172 3500 
L 594 3500 
L 594 4494 
L 1172 4494 
z
" transform="scale(0.015625)"/>
       <path id="DejaVuSans-73" d="M 2834 3397 
L 2834 2853 
Q 2591 2978 2328 3040 
Q 2066 3103 1784 3103 
Q 1356 3103 1142 2972 
Q 928 2841 928 2578 
Q 928 2378 1081 2264 
Q 1234 2150 1697 2047 
L 1894 2003 
Q 2506 1872 2764 1633 
Q 3022 1394 3022 966 
Q 3022 478 2636 193 
Q 2250 -91 1575 -91 
Q 1294 -91 989 -36 
Q 684 19 347 128 
L 347 722 
Q 666 556 975 473 
Q 1284 391 1588 391 
Q 1994 391 2212 530 
Q 2431 669 2431 922 
Q 2431 1156 2273 1281 
Q 2116 1406 1581 1522 
L 1381 1569 
Q 847 1681 609 1914 
Q 372 2147 372 2553 
Q 372 3047 722 3315 
Q 1072 3584 1716 3584 
Q 2034 3584 2315 3537 
Q 2597 3491 2834 3397 
z
" transform="scale(0.015625)"/>
       <path id="DejaVuSans-28" d="M 1984 4856 
Q 1566 4138 1362 3434 
Q 1159 2731 1159 2009 
Q 1159 1288 1364 580 
Q 1569 -128 1984 -844 
L 1484 -844 
Q 1016 -109 783 600 
Q 550 1309 550 2009 
Q 550 2706 781 3412 
Q 1013 4119 1484 4856 
L 1984 4856 
z
" transform="scale(0.015625)"/>
       <path id="DejaVuSans-43" d="M 4122 4306 
L 4122 3641 
Q 3803 3938 3442 4084 
Q 3081 4231 2675 4231 
Q 1875 4231 1450 3742 
Q 1025 3253 1025 2328 
Q 1025 1406 1450 917 
Q 1875 428 2675 428 
Q 3081 428 3442 575 
Q 3803 722 4122 1019 
L 4122 359 
Q 3791 134 3420 21 
Q 3050 -91 2638 -91 
Q 1578 -91 968 557 
Q 359 1206 359 2328 
Q 359 3453 968 4101 
Q 1578 4750 2638 4750 
Q 3056 4750 3426 4639 
Q 3797 4528 4122 4306 
z
" transform="scale(0.015625)"/>
       <path id="DejaVuSans-64" d="M 2906 2969 
L 2906 4863 
L 3481 4863 
L 3481 0 
L 2906 0 
L 2906 525 
Q 2725 213 2448 61 
Q 2172 -91 1784 -91 
Q 1150 -91 751 415 
Q 353 922 353 1747 
Q 353 2572 751 3078 
Q 1150 3584 1784 3584 
Q 2172 3584 2448 3432 
Q 2725 3281 2906 2969 
z
M 947 1747 
Q 947 1113 1208 752 
Q 1469 391 1925 391 
Q 2381 391 2643 752 
Q 2906 1113 2906 1747 
Q 2906 2381 2643 2742 
Q 2381 3103 1925 3103 
Q 1469 3103 1208 2742 
Q 947 2381 947 1747 
z
" transform="scale(0.015625)"/>
       <path id="DejaVuSans-29" d="M 513 4856 
L 1013 4856 
Q 1481 4119 1714 3412 
Q 1947 2706 1947 2009 
Q 1947 1309 1714 600 
Q 1481 -109 1013 -844 
L 513 -844 
Q 928 -128 1133 580 
Q 1338 1288 1338 2009 
Q 1338 2731 1133 3434 
Q 928 4138 513 4856 
z
" transform="scale(0.015625)"/>
      </defs>
      <use xlink:href="#DejaVuSans-53"/>
      <use xlink:href="#DejaVuSans-65" x="63.476562"/>
      <use xlink:href="#DejaVuSans-6e" x="125"/>
      <use xlink:href="#DejaVuSans-74" x="188.378906"/>
      <use xlink:href="#DejaVuSans-69" x="227.587891"/>
      <use xlink:href="#DejaVuSans-6d" x="255.371094"/>
      <use xlink:href="#DejaVuSans-65" x="352.783203"/>
      <use xlink:href="#DejaVuSans-6e" x="414.306641"/>
      <use xlink:href="#DejaVuSans-74" x="477.685547"/>
      <use xlink:href="#DejaVuSans-20" x="516.894531"/>
      <use xlink:href="#DejaVuSans-73" x="548.681641"/>
      <use xlink:href="#DejaVuSans-63" x="600.78125"/>
      <use xlink:href="#DejaVuSans-6f" x="655.761719"/>
      <use xlink:href="#DejaVuSans-72" x="716.943359"/>
      <use xlink:href="#DejaVuSans-65" x="755.806641"/>
      <use xlink:href="#DejaVuSans-20" x="817.330078"/>
      <use xlink:href="#DejaVuSans-28" x="849.117188"/>
      <use xlink:href="#DejaVuSans-43" x="888.130859"/>
      <use xlink:href="#DejaVuSans-6f" x="957.955078"/>
      <use xlink:href="#DejaVuSans-6d" x="1019.136719"/>
      <use xlink:href="#DejaVuSans-70" x="1116.548828"/>
      <use xlink:href="#DejaVuSans-6f" x="1180.025391"/>
      <use xlink:href="#DejaVuSans-75" x="1241.207031"/>
      <use xlink:href="#DejaVuSans-6e" x="1304.585938"/>
      <use xlink:href="#DejaVuSans-64" x="1367.964844"/>
      <use xlink:href="#DejaVuSans-29" x="1431.441406"/>
     </g>
    </g>
   </g>
   <g id="line2d_9">
    <path d="M 135.620313 196.855309 
L 135.620313 126.424896 
" clip-path="url(#p7701e79019)" style="fill: none; stroke: #3d3d3d; stroke-width: 1.5; stroke-linecap: square"/>
   </g>
   <g id="line2d_10">
    <path d="M 135.620313 158.879051 
L 135.620313 126.643184 
" clip-path="url(#p7701e79019)" style="fill: none; stroke: #3d3d3d; stroke-width: 4.5; stroke-linecap: square"/>
   </g>
   <g id="line2d_11">
    <path d="M 321.620313 244.330056 
L 321.620313 244.324157 
" clip-path="url(#p7701e79019)" style="fill: none; stroke: #3d3d3d; stroke-width: 1.5; stroke-linecap: square"/>
   </g>
   <g id="line2d_12">
    <path d="M 321.620313 244.330056 
L 321.620313 214.859666 
" clip-path="url(#p7701e79019)" style="fill: none; stroke: #3d3d3d; stroke-width: 4.5; stroke-linecap: square"/>
   </g>
   <g id="line2d_13">
    <path d="M 507.620313 244.359555 
L 507.620313 126.755278 
" clip-path="url(#p7701e79019)" style="fill: none; stroke: #3d3d3d; stroke-width: 1.5; stroke-linecap: square"/>
   </g>
   <g id="line2d_14">
    <path d="M 507.620313 229.00268 
L 507.620313 127.413093 
" clip-path="url(#p7701e79019)" style="fill: none; stroke: #3d3d3d; stroke-width: 4.5; stroke-linecap: square"/>
   </g>
   <g id="patch_3">
    <path d="M 42.620313 348.478125 
L 42.620313 22.318125 
" style="fill: none; stroke: #000000; stroke-width: 0.8; stroke-linejoin: miter; stroke-linecap: square"/>
   </g>
   <g id="patch_4">
    <path d="M 600.620312 348.478125 
L 600.620312 22.318125 
" style="fill: none; stroke: #000000; stroke-width: 0.8; stroke-linejoin: miter; stroke-linecap: square"/>
   </g>
   <g id="patch_5">
    <path d="M 42.620313 348.478125 
L 600.620312 348.478125 
" style="fill: none; stroke: #000000; stroke-width: 0.8; stroke-linejoin: miter; stroke-linecap: square"/>
   </g>
   <g id="patch_6">
    <path d="M 42.620313 22.318125 
L 600.620312 22.318125 
" style="fill: none; stroke: #000000; stroke-width: 0.8; stroke-linejoin: miter; stroke-linecap: square"/>
   </g>
   <g id="PathCollection_1">
    <defs>
     <path id="m290d5931d0" d="M 0 1.5 
C 0.397805 1.5 0.77937 1.341951 1.06066 1.06066 
C 1.341951 0.77937 1.5 0.397805 1.5 0 
C 1.5 -0.397805 1.341951 -0.77937 1.06066 -1.06066 
C 0.77937 -1.341951 0.397805 -1.5 0 -1.5 
C -0.397805 -1.5 -0.77937 -1.341951 -1.06066 -1.06066 
C -1.341951 -0.77937 -1.5 -0.397805 -1.5 0 
C -1.5 0.397805 -1.341951 0.77937 -1.06066 1.06066 
C -0.77937 1.341951 -0.397805 1.5 0 1.5 
z
" style="stroke: #3d3d3d"/>
    </defs>
    <g clip-path="url(#p7701e79019)">
     <use xlink:href="#m290d5931d0" x="135.620313" y="127.852619" style="fill: #ffffff; stroke: #3d3d3d"/>
    </g>
   </g>
   <g id="PathCollection_2">
    <g clip-path="url(#p7701e79019)">
     <use xlink:href="#m290d5931d0" x="321.620313" y="244.327106" style="fill: #ffffff; stroke: #3d3d3d"/>
    </g>
   </g>
   <g id="PathCollection_3">
    <g clip-path="url(#p7701e79019)">
     <use xlink:href="#m290d5931d0" x="507.620313" y="160.318574" style="fill: #ffffff; stroke: #3d3d3d"/>
    </g>
   </g>
   <g id="text_11">
    <!-- SelenaGomez -->
    <g transform="translate(280.275625 16.318125)scale(0.12 -0.12)">
     <defs>
      <path id="DejaVuSans-6c" d="M 603 4863 
L 1178 4863 
L 1178 0 
L 603 0 
L 603 4863 
z
" transform="scale(0.015625)"/>
      <path id="DejaVuSans-61" d="M 2194 1759 
Q 1497 1759 1228 1600 
Q 959 1441 959 1056 
Q 959 750 1161 570 
Q 1363 391 1709 391 
Q 2188 391 2477 730 
Q 2766 1069 2766 1631 
L 2766 1759 
L 2194 1759 
z
M 3341 1997 
L 3341 0 
L 2766 0 
L 2766 531 
Q 2569 213 2275 61 
Q 1981 -91 1556 -91 
Q 1019 -91 701 211 
Q 384 513 384 1019 
Q 384 1609 779 1909 
Q 1175 2209 1959 2209 
L 2766 2209 
L 2766 2266 
Q 2766 2663 2505 2880 
Q 2244 3097 1772 3097 
Q 1472 3097 1187 3025 
Q 903 2953 641 2809 
L 641 3341 
Q 956 3463 1253 3523 
Q 1550 3584 1831 3584 
Q 2591 3584 2966 3190 
Q 3341 2797 3341 1997 
z
" transform="scale(0.015625)"/>
      <path id="DejaVuSans-47" d="M 3809 666 
L 3809 1919 
L 2778 1919 
L 2778 2438 
L 4434 2438 
L 4434 434 
Q 4069 175 3628 42 
Q 3188 -91 2688 -91 
Q 1594 -91 976 548 
Q 359 1188 359 2328 
Q 359 3472 976 4111 
Q 1594 4750 2688 4750 
Q 3144 4750 3555 4637 
Q 3966 4525 4313 4306 
L 4313 3634 
Q 3963 3931 3569 4081 
Q 3175 4231 2741 4231 
Q 1884 4231 1454 3753 
Q 1025 3275 1025 2328 
Q 1025 1384 1454 906 
Q 1884 428 2741 428 
Q 3075 428 3337 486 
Q 3600 544 3809 666 
z
" transform="scale(0.015625)"/>
      <path id="DejaVuSans-7a" d="M 353 3500 
L 3084 3500 
L 3084 2975 
L 922 459 
L 3084 459 
L 3084 0 
L 275 0 
L 275 525 
L 2438 3041 
L 353 3041 
L 353 3500 
z
" transform="scale(0.015625)"/>
     </defs>
     <use xlink:href="#DejaVuSans-53"/>
     <use xlink:href="#DejaVuSans-65" x="63.476562"/>
     <use xlink:href="#DejaVuSans-6c" x="125"/>
     <use xlink:href="#DejaVuSans-65" x="152.783203"/>
     <use xlink:href="#DejaVuSans-6e" x="214.306641"/>
     <use xlink:href="#DejaVuSans-61" x="277.685547"/>
     <use xlink:href="#DejaVuSans-47" x="338.964844"/>
     <use xlink:href="#DejaVuSans-6f" x="416.455078"/>
     <use xlink:href="#DejaVuSans-6d" x="477.636719"/>
     <use xlink:href="#DejaVuSans-65" x="575.048828"/>
     <use xlink:href="#DejaVuSans-7a" x="636.572266"/>
    </g>
   </g>
  </g>
 </g>
 <defs>
  <clipPath id="p7701e79019">
   <rect x="42.620313" y="22.318125" width="558" height="326.16"/>
  </clipPath>
 </defs>
</svg>
