<?xml version="1.0" encoding="utf-8" standalone="no"?>
<!DOCTYPE svg PUBLIC "-//W3C//DTD SVG 1.1//EN"
  "http://www.w3.org/Graphics/SVG/1.1/DTD/svg11.dtd">
<svg xmlns:xlink="http://www.w3.org/1999/xlink" width="829.003125pt" height="414.11625pt" viewBox="0 0 829.003125 414.11625" xmlns="http://www.w3.org/2000/svg" version="1.1">
 <metadata>
  <rdf:RDF xmlns:dc="http://purl.org/dc/elements/1.1/" xmlns:cc="http://creativecommons.org/ns#" xmlns:rdf="http://www.w3.org/1999/02/22-rdf-syntax-ns#">
   <cc:Work>
    <dc:type rdf:resource="http://purl.org/dc/dcmitype/StillImage"/>
    <dc:date>2023-03-01T15:50:09.394153</dc:date>
    <dc:format>image/svg+xml</dc:format>
    <dc:creator>
     <cc:Agent>
      <dc:title>Matplotlib v3.5.1, https://matplotlib.org/</dc:title>
     </cc:Agent>
    </dc:creator>
   </cc:Work>
  </rdf:RDF>
 </metadata>
 <defs>
  <style type="text/css">*{stroke-linejoin: round; stroke-linecap: butt}</style>
 </defs>
 <g id="figure_1">
  <g id="patch_1">
   <path d="M 0 414.11625 
L 829.003125 414.11625 
L 829.003125 0 
L 0 0 
L 0 414.11625 
z
" style="fill: none"/>
  </g>
  <g id="axes_1">
   <g id="patch_2">
    <path d="M 40.603125 376.56 
L 395.694034 376.56 
L 395.694034 50.4 
L 40.603125 50.4 
z
" style="fill: #ffffff"/>
   </g>
   <g id="matplotlib.axis_1">
    <g id="xtick_1">
     <g id="line2d_1">
      <path d="M 56.743621 376.56 
L 56.743621 50.4 
" clip-path="url(#p6628aef600)" style="fill: none; stroke: #b0b0b0; stroke-width: 0.8; stroke-linecap: square"/>
     </g>
     <g id="line2d_2">
      <defs>
       <path id="m2c52027b2d" d="M 0 0 
L 0 3.5 
" style="stroke: #000000; stroke-width: 0.8"/>
      </defs>
      <g>
       <use xlink:href="#m2c52027b2d" x="56.743621" y="376.56" style="stroke: #000000; stroke-width: 0.8"/>
      </g>
     </g>
     <g id="text_1">
      <!-- 0 -->
      <g transform="translate(53.562371 391.158437)scale(0.1 -0.1)">
       <defs>
        <path id="DejaVuSans-30" d="M 2034 4250 
Q 1547 4250 1301 3770 
Q 1056 3291 1056 2328 
Q 1056 1369 1301 889 
Q 1547 409 2034 409 
Q 2525 409 2770 889 
Q 3016 1369 3016 2328 
Q 3016 3291 2770 3770 
Q 2525 4250 2034 4250 
z
M 2034 4750 
Q 2819 4750 3233 4129 
Q 3647 3509 3647 2328 
Q 3647 1150 3233 529 
Q 2819 -91 2034 -91 
Q 1250 -91 836 529 
Q 422 1150 422 2328 
Q 422 3509 836 4129 
Q 1250 4750 2034 4750 
z
" transform="scale(0.015625)"/>
       </defs>
       <use xlink:href="#DejaVuSans-30"/>
      </g>
     </g>
    </g>
    <g id="xtick_2">
     <g id="line2d_3">
      <path d="M 97.297631 376.56 
L 97.297631 50.4 
" clip-path="url(#p6628aef600)" style="fill: none; stroke: #b0b0b0; stroke-width: 0.8; stroke-linecap: square"/>
     </g>
     <g id="line2d_4">
      <g>
       <use xlink:href="#m2c52027b2d" x="97.297631" y="376.56" style="stroke: #000000; stroke-width: 0.8"/>
      </g>
     </g>
     <g id="text_2">
      <!-- 25 -->
      <g transform="translate(90.935131 391.158437)scale(0.1 -0.1)">
       <defs>
        <path id="DejaVuSans-32" d="M 1228 531 
L 3431 531 
L 3431 0 
L 469 0 
L 469 531 
Q 828 903 1448 1529 
Q 2069 2156 2228 2338 
Q 2531 2678 2651 2914 
Q 2772 3150 2772 3378 
Q 2772 3750 2511 3984 
Q 2250 4219 1831 4219 
Q 1534 4219 1204 4116 
Q 875 4013 500 3803 
L 500 4441 
Q 881 4594 1212 4672 
Q 1544 4750 1819 4750 
Q 2544 4750 2975 4387 
Q 3406 4025 3406 3419 
Q 3406 3131 3298 2873 
Q 3191 2616 2906 2266 
Q 2828 2175 2409 1742 
Q 1991 1309 1228 531 
z
" transform="scale(0.015625)"/>
        <path id="DejaVuSans-35" d="M 691 4666 
L 3169 4666 
L 3169 4134 
L 1269 4134 
L 1269 2991 
Q 1406 3038 1543 3061 
Q 1681 3084 1819 3084 
Q 2600 3084 3056 2656 
Q 3513 2228 3513 1497 
Q 3513 744 3044 326 
Q 2575 -91 1722 -91 
Q 1428 -91 1123 -41 
Q 819 9 494 109 
L 494 744 
Q 775 591 1075 516 
Q 1375 441 1709 441 
Q 2250 441 2565 725 
Q 2881 1009 2881 1497 
Q 2881 1984 2565 2268 
Q 2250 2553 1709 2553 
Q 1456 2553 1204 2497 
Q 953 2441 691 2322 
L 691 4666 
z
" transform="scale(0.015625)"/>
       </defs>
       <use xlink:href="#DejaVuSans-32"/>
       <use xlink:href="#DejaVuSans-35" x="63.623047"/>
      </g>
     </g>
    </g>
    <g id="xtick_3">
     <g id="line2d_5">
      <path d="M 137.85164 376.56 
L 137.85164 50.4 
" clip-path="url(#p6628aef600)" style="fill: none; stroke: #b0b0b0; stroke-width: 0.8; stroke-linecap: square"/>
     </g>
     <g id="line2d_6">
      <g>
       <use xlink:href="#m2c52027b2d" x="137.85164" y="376.56" style="stroke: #000000; stroke-width: 0.8"/>
      </g>
     </g>
     <g id="text_3">
      <!-- 50 -->
      <g transform="translate(131.48914 391.158437)scale(0.1 -0.1)">
       <use xlink:href="#DejaVuSans-35"/>
       <use xlink:href="#DejaVuSans-30" x="63.623047"/>
      </g>
     </g>
    </g>
    <g id="xtick_4">
     <g id="line2d_7">
      <path d="M 178.40565 376.56 
L 178.40565 50.4 
" clip-path="url(#p6628aef600)" style="fill: none; stroke: #b0b0b0; stroke-width: 0.8; stroke-linecap: square"/>
     </g>
     <g id="line2d_8">
      <g>
       <use xlink:href="#m2c52027b2d" x="178.40565" y="376.56" style="stroke: #000000; stroke-width: 0.8"/>
      </g>
     </g>
     <g id="text_4">
      <!-- 75 -->
      <g transform="translate(172.04315 391.158437)scale(0.1 -0.1)">
       <defs>
        <path id="DejaVuSans-37" d="M 525 4666 
L 3525 4666 
L 3525 4397 
L 1831 0 
L 1172 0 
L 2766 4134 
L 525 4134 
L 525 4666 
z
" transform="scale(0.015625)"/>
       </defs>
       <use xlink:href="#DejaVuSans-37"/>
       <use xlink:href="#DejaVuSans-35" x="63.623047"/>
      </g>
     </g>
    </g>
    <g id="xtick_5">
     <g id="line2d_9">
      <path d="M 218.95966 376.56 
L 218.95966 50.4 
" clip-path="url(#p6628aef600)" style="fill: none; stroke: #b0b0b0; stroke-width: 0.8; stroke-linecap: square"/>
     </g>
     <g id="line2d_10">
      <g>
       <use xlink:href="#m2c52027b2d" x="218.95966" y="376.56" style="stroke: #000000; stroke-width: 0.8"/>
      </g>
     </g>
     <g id="text_5">
      <!-- 100 -->
      <g transform="translate(209.41591 391.158437)scale(0.1 -0.1)">
       <defs>
        <path id="DejaVuSans-31" d="M 794 531 
L 1825 531 
L 1825 4091 
L 703 3866 
L 703 4441 
L 1819 4666 
L 2450 4666 
L 2450 531 
L 3481 531 
L 3481 0 
L 794 0 
L 794 531 
z
" transform="scale(0.015625)"/>
       </defs>
       <use xlink:href="#DejaVuSans-31"/>
       <use xlink:href="#DejaVuSans-30" x="63.623047"/>
       <use xlink:href="#DejaVuSans-30" x="127.246094"/>
      </g>
     </g>
    </g>
    <g id="xtick_6">
     <g id="line2d_11">
      <path d="M 259.513669 376.56 
L 259.513669 50.4 
" clip-path="url(#p6628aef600)" style="fill: none; stroke: #b0b0b0; stroke-width: 0.8; stroke-linecap: square"/>
     </g>
     <g id="line2d_12">
      <g>
       <use xlink:href="#m2c52027b2d" x="259.513669" y="376.56" style="stroke: #000000; stroke-width: 0.8"/>
      </g>
     </g>
     <g id="text_6">
      <!-- 125 -->
      <g transform="translate(249.969919 391.158437)scale(0.1 -0.1)">
       <use xlink:href="#DejaVuSans-31"/>
       <use xlink:href="#DejaVuSans-32" x="63.623047"/>
       <use xlink:href="#DejaVuSans-35" x="127.246094"/>
      </g>
     </g>
    </g>
    <g id="xtick_7">
     <g id="line2d_13">
      <path d="M 300.067679 376.56 
L 300.067679 50.4 
" clip-path="url(#p6628aef600)" style="fill: none; stroke: #b0b0b0; stroke-width: 0.8; stroke-linecap: square"/>
     </g>
     <g id="line2d_14">
      <g>
       <use xlink:href="#m2c52027b2d" x="300.067679" y="376.56" style="stroke: #000000; stroke-width: 0.8"/>
      </g>
     </g>
     <g id="text_7">
      <!-- 150 -->
      <g transform="translate(290.523929 391.158437)scale(0.1 -0.1)">
       <use xlink:href="#DejaVuSans-31"/>
       <use xlink:href="#DejaVuSans-35" x="63.623047"/>
       <use xlink:href="#DejaVuSans-30" x="127.246094"/>
      </g>
     </g>
    </g>
    <g id="xtick_8">
     <g id="line2d_15">
      <path d="M 340.621689 376.56 
L 340.621689 50.4 
" clip-path="url(#p6628aef600)" style="fill: none; stroke: #b0b0b0; stroke-width: 0.8; stroke-linecap: square"/>
     </g>
     <g id="line2d_16">
      <g>
       <use xlink:href="#m2c52027b2d" x="340.621689" y="376.56" style="stroke: #000000; stroke-width: 0.8"/>
      </g>
     </g>
     <g id="text_8">
      <!-- 175 -->
      <g transform="translate(331.077939 391.158437)scale(0.1 -0.1)">
       <use xlink:href="#DejaVuSans-31"/>
       <use xlink:href="#DejaVuSans-37" x="63.623047"/>
       <use xlink:href="#DejaVuSans-35" x="127.246094"/>
      </g>
     </g>
    </g>
    <g id="xtick_9">
     <g id="line2d_17">
      <path d="M 381.175699 376.56 
L 381.175699 50.4 
" clip-path="url(#p6628aef600)" style="fill: none; stroke: #b0b0b0; stroke-width: 0.8; stroke-linecap: square"/>
     </g>
     <g id="line2d_18">
      <g>
       <use xlink:href="#m2c52027b2d" x="381.175699" y="376.56" style="stroke: #000000; stroke-width: 0.8"/>
      </g>
     </g>
     <g id="text_9">
      <!-- 200 -->
      <g transform="translate(371.631949 391.158437)scale(0.1 -0.1)">
       <use xlink:href="#DejaVuSans-32"/>
       <use xlink:href="#DejaVuSans-30" x="63.623047"/>
       <use xlink:href="#DejaVuSans-30" x="127.246094"/>
      </g>
     </g>
    </g>
    <g id="text_10">
     <!-- Epoch -->
     <g transform="translate(202.837642 404.836562)scale(0.1 -0.1)">
      <defs>
       <path id="DejaVuSans-45" d="M 628 4666 
L 3578 4666 
L 3578 4134 
L 1259 4134 
L 1259 2753 
L 3481 2753 
L 3481 2222 
L 1259 2222 
L 1259 531 
L 3634 531 
L 3634 0 
L 628 0 
L 628 4666 
z
" transform="scale(0.015625)"/>
       <path id="DejaVuSans-70" d="M 1159 525 
L 1159 -1331 
L 581 -1331 
L 581 3500 
L 1159 3500 
L 1159 2969 
Q 1341 3281 1617 3432 
Q 1894 3584 2278 3584 
Q 2916 3584 3314 3078 
Q 3713 2572 3713 1747 
Q 3713 922 3314 415 
Q 2916 -91 2278 -91 
Q 1894 -91 1617 61 
Q 1341 213 1159 525 
z
M 3116 1747 
Q 3116 2381 2855 2742 
Q 2594 3103 2138 3103 
Q 1681 3103 1420 2742 
Q 1159 2381 1159 1747 
Q 1159 1113 1420 752 
Q 1681 391 2138 391 
Q 2594 391 2855 752 
Q 3116 1113 3116 1747 
z
" transform="scale(0.015625)"/>
       <path id="DejaVuSans-6f" d="M 1959 3097 
Q 1497 3097 1228 2736 
Q 959 2375 959 1747 
Q 959 1119 1226 758 
Q 1494 397 1959 397 
Q 2419 397 2687 759 
Q 2956 1122 2956 1747 
Q 2956 2369 2687 2733 
Q 2419 3097 1959 3097 
z
M 1959 3584 
Q 2709 3584 3137 3096 
Q 3566 2609 3566 1747 
Q 3566 888 3137 398 
Q 2709 -91 1959 -91 
Q 1206 -91 779 398 
Q 353 888 353 1747 
Q 353 2609 779 3096 
Q 1206 3584 1959 3584 
z
" transform="scale(0.015625)"/>
       <path id="DejaVuSans-63" d="M 3122 3366 
L 3122 2828 
Q 2878 2963 2633 3030 
Q 2388 3097 2138 3097 
Q 1578 3097 1268 2742 
Q 959 2388 959 1747 
Q 959 1106 1268 751 
Q 1578 397 2138 397 
Q 2388 397 2633 464 
Q 2878 531 3122 666 
L 3122 134 
Q 2881 22 2623 -34 
Q 2366 -91 2075 -91 
Q 1284 -91 818 406 
Q 353 903 353 1747 
Q 353 2603 823 3093 
Q 1294 3584 2113 3584 
Q 2378 3584 2631 3529 
Q 2884 3475 3122 3366 
z
" transform="scale(0.015625)"/>
       <path id="DejaVuSans-68" d="M 3513 2113 
L 3513 0 
L 2938 0 
L 2938 2094 
Q 2938 2591 2744 2837 
Q 2550 3084 2163 3084 
Q 1697 3084 1428 2787 
Q 1159 2491 1159 1978 
L 1159 0 
L 581 0 
L 581 4863 
L 1159 4863 
L 1159 2956 
Q 1366 3272 1645 3428 
Q 1925 3584 2291 3584 
Q 2894 3584 3203 3211 
Q 3513 2838 3513 2113 
z
" transform="scale(0.015625)"/>
      </defs>
      <use xlink:href="#DejaVuSans-45"/>
      <use xlink:href="#DejaVuSans-70" x="63.183594"/>
      <use xlink:href="#DejaVuSans-6f" x="126.660156"/>
      <use xlink:href="#DejaVuSans-63" x="187.841797"/>
      <use xlink:href="#DejaVuSans-68" x="242.822266"/>
     </g>
    </g>
   </g>
   <g id="matplotlib.axis_2">
    <g id="ytick_1">
     <g id="line2d_19">
      <path d="M 40.603125 362.783226 
L 395.694034 362.783226 
" clip-path="url(#p6628aef600)" style="fill: none; stroke: #b0b0b0; stroke-width: 0.8; stroke-linecap: square"/>
     </g>
     <g id="line2d_20">
      <defs>
       <path id="m30ffeceaae" d="M 0 0 
L -3.5 0 
" style="stroke: #000000; stroke-width: 0.8"/>
      </defs>
      <g>
       <use xlink:href="#m30ffeceaae" x="40.603125" y="362.783226" style="stroke: #000000; stroke-width: 0.8"/>
      </g>
     </g>
     <g id="text_11">
      <!-- 0 -->
      <g transform="translate(27.240625 366.582445)scale(0.1 -0.1)">
       <use xlink:href="#DejaVuSans-30"/>
      </g>
     </g>
    </g>
    <g id="ytick_2">
     <g id="line2d_21">
      <path d="M 40.603125 292.751335 
L 395.694034 292.751335 
" clip-path="url(#p6628aef600)" style="fill: none; stroke: #b0b0b0; stroke-width: 0.8; stroke-linecap: square"/>
     </g>
     <g id="line2d_22">
      <g>
       <use xlink:href="#m30ffeceaae" x="40.603125" y="292.751335" style="stroke: #000000; stroke-width: 0.8"/>
      </g>
     </g>
     <g id="text_12">
      <!-- 10 -->
      <g transform="translate(20.878125 296.550553)scale(0.1 -0.1)">
       <use xlink:href="#DejaVuSans-31"/>
       <use xlink:href="#DejaVuSans-30" x="63.623047"/>
      </g>
     </g>
    </g>
    <g id="ytick_3">
     <g id="line2d_23">
      <path d="M 40.603125 222.719443 
L 395.694034 222.719443 
" clip-path="url(#p6628aef600)" style="fill: none; stroke: #b0b0b0; stroke-width: 0.8; stroke-linecap: square"/>
     </g>
     <g id="line2d_24">
      <g>
       <use xlink:href="#m30ffeceaae" x="40.603125" y="222.719443" style="stroke: #000000; stroke-width: 0.8"/>
      </g>
     </g>
     <g id="text_13">
      <!-- 20 -->
      <g transform="translate(20.878125 226.518662)scale(0.1 -0.1)">
       <use xlink:href="#DejaVuSans-32"/>
       <use xlink:href="#DejaVuSans-30" x="63.623047"/>
      </g>
     </g>
    </g>
    <g id="ytick_4">
     <g id="line2d_25">
      <path d="M 40.603125 152.687552 
L 395.694034 152.687552 
" clip-path="url(#p6628aef600)" style="fill: none; stroke: #b0b0b0; stroke-width: 0.8; stroke-linecap: square"/>
     </g>
     <g id="line2d_26">
      <g>
       <use xlink:href="#m30ffeceaae" x="40.603125" y="152.687552" style="stroke: #000000; stroke-width: 0.8"/>
      </g>
     </g>
     <g id="text_14">
      <!-- 30 -->
      <g transform="translate(20.878125 156.48677)scale(0.1 -0.1)">
       <defs>
        <path id="DejaVuSans-33" d="M 2597 2516 
Q 3050 2419 3304 2112 
Q 3559 1806 3559 1356 
Q 3559 666 3084 287 
Q 2609 -91 1734 -91 
Q 1441 -91 1130 -33 
Q 819 25 488 141 
L 488 750 
Q 750 597 1062 519 
Q 1375 441 1716 441 
Q 2309 441 2620 675 
Q 2931 909 2931 1356 
Q 2931 1769 2642 2001 
Q 2353 2234 1838 2234 
L 1294 2234 
L 1294 2753 
L 1863 2753 
Q 2328 2753 2575 2939 
Q 2822 3125 2822 3475 
Q 2822 3834 2567 4026 
Q 2313 4219 1838 4219 
Q 1578 4219 1281 4162 
Q 984 4106 628 3988 
L 628 4550 
Q 988 4650 1302 4700 
Q 1616 4750 1894 4750 
Q 2613 4750 3031 4423 
Q 3450 4097 3450 3541 
Q 3450 3153 3228 2886 
Q 3006 2619 2597 2516 
z
" transform="scale(0.015625)"/>
       </defs>
       <use xlink:href="#DejaVuSans-33"/>
       <use xlink:href="#DejaVuSans-30" x="63.623047"/>
      </g>
     </g>
    </g>
    <g id="ytick_5">
     <g id="line2d_27">
      <path d="M 40.603125 82.65566 
L 395.694034 82.65566 
" clip-path="url(#p6628aef600)" style="fill: none; stroke: #b0b0b0; stroke-width: 0.8; stroke-linecap: square"/>
     </g>
     <g id="line2d_28">
      <g>
       <use xlink:href="#m30ffeceaae" x="40.603125" y="82.65566" style="stroke: #000000; stroke-width: 0.8"/>
      </g>
     </g>
     <g id="text_15">
      <!-- 40 -->
      <g transform="translate(20.878125 86.454879)scale(0.1 -0.1)">
       <defs>
        <path id="DejaVuSans-34" d="M 2419 4116 
L 825 1625 
L 2419 1625 
L 2419 4116 
z
M 2253 4666 
L 3047 4666 
L 3047 1625 
L 3713 1625 
L 3713 1100 
L 3047 1100 
L 3047 0 
L 2419 0 
L 2419 1100 
L 313 1100 
L 313 1709 
L 2253 4666 
z
" transform="scale(0.015625)"/>
       </defs>
       <use xlink:href="#DejaVuSans-34"/>
       <use xlink:href="#DejaVuSans-30" x="63.623047"/>
      </g>
     </g>
    </g>
    <g id="text_16">
     <!-- Loss -->
     <g transform="translate(14.798438 224.447187)rotate(-90)scale(0.1 -0.1)">
      <defs>
       <path id="DejaVuSans-4c" d="M 628 4666 
L 1259 4666 
L 1259 531 
L 3531 531 
L 3531 0 
L 628 0 
L 628 4666 
z
" transform="scale(0.015625)"/>
       <path id="DejaVuSans-73" d="M 2834 3397 
L 2834 2853 
Q 2591 2978 2328 3040 
Q 2066 3103 1784 3103 
Q 1356 3103 1142 2972 
Q 928 2841 928 2578 
Q 928 2378 1081 2264 
Q 1234 2150 1697 2047 
L 1894 2003 
Q 2506 1872 2764 1633 
Q 3022 1394 3022 966 
Q 3022 478 2636 193 
Q 2250 -91 1575 -91 
Q 1294 -91 989 -36 
Q 684 19 347 128 
L 347 722 
Q 666 556 975 473 
Q 1284 391 1588 391 
Q 1994 391 2212 530 
Q 2431 669 2431 922 
Q 2431 1156 2273 1281 
Q 2116 1406 1581 1522 
L 1381 1569 
Q 847 1681 609 1914 
Q 372 2147 372 2553 
Q 372 3047 722 3315 
Q 1072 3584 1716 3584 
Q 2034 3584 2315 3537 
Q 2597 3491 2834 3397 
z
" transform="scale(0.015625)"/>
      </defs>
      <use xlink:href="#DejaVuSans-4c"/>
      <use xlink:href="#DejaVuSans-6f" x="53.962891"/>
      <use xlink:href="#DejaVuSans-73" x="115.144531"/>
      <use xlink:href="#DejaVuSans-73" x="167.244141"/>
     </g>
    </g>
   </g>
   <g id="line2d_29">
    <path d="M 56.743621 65.225455 
L 58.365781 219.98827 
L 59.987942 332.46819 
L 61.610102 349.226315 
L 63.232262 355.367699 
L 64.854423 357.338929 
L 66.476583 358.290338 
L 68.098744 358.26843 
L 71.343064 359.205577 
L 72.965225 359.266588 
L 74.587385 359.197943 
L 76.209546 359.649439 
L 77.831706 359.764193 
L 79.453866 360.106112 
L 82.698187 360.308393 
L 87.564668 360.49769 
L 94.05331 360.770148 
L 95.67547 360.603876 
L 97.297631 360.884729 
L 98.919791 361.02912 
L 100.541951 360.72296 
L 102.164112 360.890695 
L 111.897074 360.879293 
L 113.519234 361.118888 
L 115.141395 361.049345 
L 116.763555 361.093972 
L 120.007876 361.0257 
L 126.496518 361.10933 
L 129.740838 361.196342 
L 131.362999 361.24046 
L 134.60732 361.096251 
L 137.85164 361.179376 
L 139.473801 361.12193 
L 141.095961 361.236583 
L 149.206763 361.153296 
L 152.451084 361.299379 
L 154.073244 361.274019 
L 155.695405 361.362091 
L 162.184046 361.250414 
L 163.806207 361.248821 
L 165.428367 361.364296 
L 168.672688 361.215219 
L 170.294848 361.32122 
L 173.539169 361.212299 
L 176.78349 361.423885 
L 178.40565 361.320667 
L 181.649971 361.364362 
L 184.894292 361.366971 
L 188.138612 361.284235 
L 194.627254 361.396536 
L 201.115895 361.277631 
L 205.982377 361.372718 
L 212.471018 361.406749 
L 214.093179 361.446813 
L 215.715339 361.350556 
L 222.203981 361.455935 
L 236.803424 361.518024 
L 238.425584 361.410438 
L 240.047745 361.526369 
L 244.914226 361.456614 
L 246.536386 361.567324 
L 251.402868 361.474445 
L 256.269349 361.544314 
L 259.513669 361.512691 
L 266.002311 361.568245 
L 269.246632 361.493743 
L 274.113113 361.584845 
L 283.846075 361.58826 
L 287.090396 361.583459 
L 290.334717 361.609016 
L 300.067679 361.584931 
L 303.312 361.621979 
L 306.556321 361.559737 
L 311.422802 361.608301 
L 314.667123 361.595456 
L 322.777925 361.668034 
L 334.133047 361.609666 
L 337.377368 361.632367 
L 340.621689 361.659512 
L 374.687057 361.686863 
L 379.553538 361.663434 
L 379.553538 361.663434 
" clip-path="url(#p6628aef600)" style="fill: none; stroke: #000000; stroke-width: 1.5; stroke-linecap: square"/>
   </g>
   <g id="patch_3">
    <path d="M 40.603125 376.56 
L 40.603125 50.4 
" style="fill: none; stroke: #000000; stroke-width: 0.8; stroke-linejoin: miter; stroke-linecap: square"/>
   </g>
   <g id="patch_4">
    <path d="M 395.694034 376.56 
L 395.694034 50.4 
" style="fill: none; stroke: #000000; stroke-width: 0.8; stroke-linejoin: miter; stroke-linecap: square"/>
   </g>
   <g id="patch_5">
    <path d="M 40.603125 376.56 
L 395.694034 376.56 
" style="fill: none; stroke: #000000; stroke-width: 0.8; stroke-linejoin: miter; stroke-linecap: square"/>
   </g>
   <g id="patch_6">
    <path d="M 40.603125 50.4 
L 395.694034 50.4 
" style="fill: none; stroke: #000000; stroke-width: 0.8; stroke-linejoin: miter; stroke-linecap: square"/>
   </g>
   <g id="text_17">
    <!-- Loss per Epoch -->
    <g transform="translate(172.83358 44.4)scale(0.12 -0.12)">
     <defs>
      <path id="DejaVuSans-20" transform="scale(0.015625)"/>
      <path id="DejaVuSans-65" d="M 3597 1894 
L 3597 1613 
L 953 1613 
Q 991 1019 1311 708 
Q 1631 397 2203 397 
Q 2534 397 2845 478 
Q 3156 559 3463 722 
L 3463 178 
Q 3153 47 2828 -22 
Q 2503 -91 2169 -91 
Q 1331 -91 842 396 
Q 353 884 353 1716 
Q 353 2575 817 3079 
Q 1281 3584 2069 3584 
Q 2775 3584 3186 3129 
Q 3597 2675 3597 1894 
z
M 3022 2063 
Q 3016 2534 2758 2815 
Q 2500 3097 2075 3097 
Q 1594 3097 1305 2825 
Q 1016 2553 972 2059 
L 3022 2063 
z
" transform="scale(0.015625)"/>
      <path id="DejaVuSans-72" d="M 2631 2963 
Q 2534 3019 2420 3045 
Q 2306 3072 2169 3072 
Q 1681 3072 1420 2755 
Q 1159 2438 1159 1844 
L 1159 0 
L 581 0 
L 581 3500 
L 1159 3500 
L 1159 2956 
Q 1341 3275 1631 3429 
Q 1922 3584 2338 3584 
Q 2397 3584 2469 3576 
Q 2541 3569 2628 3553 
L 2631 2963 
z
" transform="scale(0.015625)"/>
     </defs>
     <use xlink:href="#DejaVuSans-4c"/>
     <use xlink:href="#DejaVuSans-6f" x="53.962891"/>
     <use xlink:href="#DejaVuSans-73" x="115.144531"/>
     <use xlink:href="#DejaVuSans-73" x="167.244141"/>
     <use xlink:href="#DejaVuSans-20" x="219.34375"/>
     <use xlink:href="#DejaVuSans-70" x="251.130859"/>
     <use xlink:href="#DejaVuSans-65" x="314.607422"/>
     <use xlink:href="#DejaVuSans-72" x="376.130859"/>
     <use xlink:href="#DejaVuSans-20" x="417.244141"/>
     <use xlink:href="#DejaVuSans-45" x="449.03125"/>
     <use xlink:href="#DejaVuSans-70" x="512.214844"/>
     <use xlink:href="#DejaVuSans-6f" x="575.691406"/>
     <use xlink:href="#DejaVuSans-63" x="636.873047"/>
     <use xlink:href="#DejaVuSans-68" x="691.853516"/>
    </g>
   </g>
  </g>
  <g id="axes_2">
   <g id="patch_7">
    <path d="M 466.712216 376.56 
L 821.803125 376.56 
L 821.803125 50.4 
L 466.712216 50.4 
z
" style="fill: #ffffff"/>
   </g>
   <g id="matplotlib.axis_3">
    <g id="xtick_10">
     <g id="line2d_30">
      <path d="M 482.852712 376.56 
L 482.852712 50.4 
" clip-path="url(#p9a47246d9a)" style="fill: none; stroke: #b0b0b0; stroke-width: 0.8; stroke-linecap: square"/>
     </g>
     <g id="line2d_31">
      <g>
       <use xlink:href="#m2c52027b2d" x="482.852712" y="376.56" style="stroke: #000000; stroke-width: 0.8"/>
      </g>
     </g>
     <g id="text_18">
      <!-- 0 -->
      <g transform="translate(479.671462 391.158437)scale(0.1 -0.1)">
       <use xlink:href="#DejaVuSans-30"/>
      </g>
     </g>
    </g>
    <g id="xtick_11">
     <g id="line2d_32">
      <path d="M 523.406721 376.56 
L 523.406721 50.4 
" clip-path="url(#p9a47246d9a)" style="fill: none; stroke: #b0b0b0; stroke-width: 0.8; stroke-linecap: square"/>
     </g>
     <g id="line2d_33">
      <g>
       <use xlink:href="#m2c52027b2d" x="523.406721" y="376.56" style="stroke: #000000; stroke-width: 0.8"/>
      </g>
     </g>
     <g id="text_19">
      <!-- 25 -->
      <g transform="translate(517.044221 391.158437)scale(0.1 -0.1)">
       <use xlink:href="#DejaVuSans-32"/>
       <use xlink:href="#DejaVuSans-35" x="63.623047"/>
      </g>
     </g>
    </g>
    <g id="xtick_12">
     <g id="line2d_34">
      <path d="M 563.960731 376.56 
L 563.960731 50.4 
" clip-path="url(#p9a47246d9a)" style="fill: none; stroke: #b0b0b0; stroke-width: 0.8; stroke-linecap: square"/>
     </g>
     <g id="line2d_35">
      <g>
       <use xlink:href="#m2c52027b2d" x="563.960731" y="376.56" style="stroke: #000000; stroke-width: 0.8"/>
      </g>
     </g>
     <g id="text_20">
      <!-- 50 -->
      <g transform="translate(557.598231 391.158437)scale(0.1 -0.1)">
       <use xlink:href="#DejaVuSans-35"/>
       <use xlink:href="#DejaVuSans-30" x="63.623047"/>
      </g>
     </g>
    </g>
    <g id="xtick_13">
     <g id="line2d_36">
      <path d="M 604.514741 376.56 
L 604.514741 50.4 
" clip-path="url(#p9a47246d9a)" style="fill: none; stroke: #b0b0b0; stroke-width: 0.8; stroke-linecap: square"/>
     </g>
     <g id="line2d_37">
      <g>
       <use xlink:href="#m2c52027b2d" x="604.514741" y="376.56" style="stroke: #000000; stroke-width: 0.8"/>
      </g>
     </g>
     <g id="text_21">
      <!-- 75 -->
      <g transform="translate(598.152241 391.158437)scale(0.1 -0.1)">
       <use xlink:href="#DejaVuSans-37"/>
       <use xlink:href="#DejaVuSans-35" x="63.623047"/>
      </g>
     </g>
    </g>
    <g id="xtick_14">
     <g id="line2d_38">
      <path d="M 645.068751 376.56 
L 645.068751 50.4 
" clip-path="url(#p9a47246d9a)" style="fill: none; stroke: #b0b0b0; stroke-width: 0.8; stroke-linecap: square"/>
     </g>
     <g id="line2d_39">
      <g>
       <use xlink:href="#m2c52027b2d" x="645.068751" y="376.56" style="stroke: #000000; stroke-width: 0.8"/>
      </g>
     </g>
     <g id="text_22">
      <!-- 100 -->
      <g transform="translate(635.525001 391.158437)scale(0.1 -0.1)">
       <use xlink:href="#DejaVuSans-31"/>
       <use xlink:href="#DejaVuSans-30" x="63.623047"/>
       <use xlink:href="#DejaVuSans-30" x="127.246094"/>
      </g>
     </g>
    </g>
    <g id="xtick_15">
     <g id="line2d_40">
      <path d="M 685.62276 376.56 
L 685.62276 50.4 
" clip-path="url(#p9a47246d9a)" style="fill: none; stroke: #b0b0b0; stroke-width: 0.8; stroke-linecap: square"/>
     </g>
     <g id="line2d_41">
      <g>
       <use xlink:href="#m2c52027b2d" x="685.62276" y="376.56" style="stroke: #000000; stroke-width: 0.8"/>
      </g>
     </g>
     <g id="text_23">
      <!-- 125 -->
      <g transform="translate(676.07901 391.158437)scale(0.1 -0.1)">
       <use xlink:href="#DejaVuSans-31"/>
       <use xlink:href="#DejaVuSans-32" x="63.623047"/>
       <use xlink:href="#DejaVuSans-35" x="127.246094"/>
      </g>
     </g>
    </g>
    <g id="xtick_16">
     <g id="line2d_42">
      <path d="M 726.17677 376.56 
L 726.17677 50.4 
" clip-path="url(#p9a47246d9a)" style="fill: none; stroke: #b0b0b0; stroke-width: 0.8; stroke-linecap: square"/>
     </g>
     <g id="line2d_43">
      <g>
       <use xlink:href="#m2c52027b2d" x="726.17677" y="376.56" style="stroke: #000000; stroke-width: 0.8"/>
      </g>
     </g>
     <g id="text_24">
      <!-- 150 -->
      <g transform="translate(716.63302 391.158437)scale(0.1 -0.1)">
       <use xlink:href="#DejaVuSans-31"/>
       <use xlink:href="#DejaVuSans-35" x="63.623047"/>
       <use xlink:href="#DejaVuSans-30" x="127.246094"/>
      </g>
     </g>
    </g>
    <g id="xtick_17">
     <g id="line2d_44">
      <path d="M 766.73078 376.56 
L 766.73078 50.4 
" clip-path="url(#p9a47246d9a)" style="fill: none; stroke: #b0b0b0; stroke-width: 0.8; stroke-linecap: square"/>
     </g>
     <g id="line2d_45">
      <g>
       <use xlink:href="#m2c52027b2d" x="766.73078" y="376.56" style="stroke: #000000; stroke-width: 0.8"/>
      </g>
     </g>
     <g id="text_25">
      <!-- 175 -->
      <g transform="translate(757.18703 391.158437)scale(0.1 -0.1)">
       <use xlink:href="#DejaVuSans-31"/>
       <use xlink:href="#DejaVuSans-37" x="63.623047"/>
       <use xlink:href="#DejaVuSans-35" x="127.246094"/>
      </g>
     </g>
    </g>
    <g id="xtick_18">
     <g id="line2d_46">
      <path d="M 807.28479 376.56 
L 807.28479 50.4 
" clip-path="url(#p9a47246d9a)" style="fill: none; stroke: #b0b0b0; stroke-width: 0.8; stroke-linecap: square"/>
     </g>
     <g id="line2d_47">
      <g>
       <use xlink:href="#m2c52027b2d" x="807.28479" y="376.56" style="stroke: #000000; stroke-width: 0.8"/>
      </g>
     </g>
     <g id="text_26">
      <!-- 200 -->
      <g transform="translate(797.74104 391.158437)scale(0.1 -0.1)">
       <use xlink:href="#DejaVuSans-32"/>
       <use xlink:href="#DejaVuSans-30" x="63.623047"/>
       <use xlink:href="#DejaVuSans-30" x="127.246094"/>
      </g>
     </g>
    </g>
    <g id="text_27">
     <!-- Epoch -->
     <g transform="translate(628.946733 404.836562)scale(0.1 -0.1)">
      <use xlink:href="#DejaVuSans-45"/>
      <use xlink:href="#DejaVuSans-70" x="63.183594"/>
      <use xlink:href="#DejaVuSans-6f" x="126.660156"/>
      <use xlink:href="#DejaVuSans-63" x="187.841797"/>
      <use xlink:href="#DejaVuSans-68" x="242.822266"/>
     </g>
    </g>
   </g>
   <g id="matplotlib.axis_4">
    <g id="ytick_6">
     <g id="line2d_48">
      <path d="M 466.712216 315.457441 
L 821.803125 315.457441 
" clip-path="url(#p9a47246d9a)" style="fill: none; stroke: #b0b0b0; stroke-width: 0.8; stroke-linecap: square"/>
     </g>
     <g id="line2d_49">
      <g>
       <use xlink:href="#m30ffeceaae" x="466.712216" y="315.457441" style="stroke: #000000; stroke-width: 0.8"/>
      </g>
     </g>
     <g id="text_28">
      <!-- 0.2 -->
      <g transform="translate(443.809091 319.25666)scale(0.1 -0.1)">
       <defs>
        <path id="DejaVuSans-2e" d="M 684 794 
L 1344 794 
L 1344 0 
L 684 0 
L 684 794 
z
" transform="scale(0.015625)"/>
       </defs>
       <use xlink:href="#DejaVuSans-30"/>
       <use xlink:href="#DejaVuSans-2e" x="63.623047"/>
       <use xlink:href="#DejaVuSans-32" x="95.410156"/>
      </g>
     </g>
    </g>
    <g id="ytick_7">
     <g id="line2d_50">
      <path d="M 466.712216 243.394893 
L 821.803125 243.394893 
" clip-path="url(#p9a47246d9a)" style="fill: none; stroke: #b0b0b0; stroke-width: 0.8; stroke-linecap: square"/>
     </g>
     <g id="line2d_51">
      <g>
       <use xlink:href="#m30ffeceaae" x="466.712216" y="243.394893" style="stroke: #000000; stroke-width: 0.8"/>
      </g>
     </g>
     <g id="text_29">
      <!-- 0.4 -->
      <g transform="translate(443.809091 247.194112)scale(0.1 -0.1)">
       <use xlink:href="#DejaVuSans-30"/>
       <use xlink:href="#DejaVuSans-2e" x="63.623047"/>
       <use xlink:href="#DejaVuSans-34" x="95.410156"/>
      </g>
     </g>
    </g>
    <g id="ytick_8">
     <g id="line2d_52">
      <path d="M 466.712216 171.332344 
L 821.803125 171.332344 
" clip-path="url(#p9a47246d9a)" style="fill: none; stroke: #b0b0b0; stroke-width: 0.8; stroke-linecap: square"/>
     </g>
     <g id="line2d_53">
      <g>
       <use xlink:href="#m30ffeceaae" x="466.712216" y="171.332344" style="stroke: #000000; stroke-width: 0.8"/>
      </g>
     </g>
     <g id="text_30">
      <!-- 0.6 -->
      <g transform="translate(443.809091 175.131563)scale(0.1 -0.1)">
       <defs>
        <path id="DejaVuSans-36" d="M 2113 2584 
Q 1688 2584 1439 2293 
Q 1191 2003 1191 1497 
Q 1191 994 1439 701 
Q 1688 409 2113 409 
Q 2538 409 2786 701 
Q 3034 994 3034 1497 
Q 3034 2003 2786 2293 
Q 2538 2584 2113 2584 
z
M 3366 4563 
L 3366 3988 
Q 3128 4100 2886 4159 
Q 2644 4219 2406 4219 
Q 1781 4219 1451 3797 
Q 1122 3375 1075 2522 
Q 1259 2794 1537 2939 
Q 1816 3084 2150 3084 
Q 2853 3084 3261 2657 
Q 3669 2231 3669 1497 
Q 3669 778 3244 343 
Q 2819 -91 2113 -91 
Q 1303 -91 875 529 
Q 447 1150 447 2328 
Q 447 3434 972 4092 
Q 1497 4750 2381 4750 
Q 2619 4750 2861 4703 
Q 3103 4656 3366 4563 
z
" transform="scale(0.015625)"/>
       </defs>
       <use xlink:href="#DejaVuSans-30"/>
       <use xlink:href="#DejaVuSans-2e" x="63.623047"/>
       <use xlink:href="#DejaVuSans-36" x="95.410156"/>
      </g>
     </g>
    </g>
    <g id="ytick_9">
     <g id="line2d_54">
      <path d="M 466.712216 99.269796 
L 821.803125 99.269796 
" clip-path="url(#p9a47246d9a)" style="fill: none; stroke: #b0b0b0; stroke-width: 0.8; stroke-linecap: square"/>
     </g>
     <g id="line2d_55">
      <g>
       <use xlink:href="#m30ffeceaae" x="466.712216" y="99.269796" style="stroke: #000000; stroke-width: 0.8"/>
      </g>
     </g>
     <g id="text_31">
      <!-- 0.8 -->
      <g transform="translate(443.809091 103.069015)scale(0.1 -0.1)">
       <defs>
        <path id="DejaVuSans-38" d="M 2034 2216 
Q 1584 2216 1326 1975 
Q 1069 1734 1069 1313 
Q 1069 891 1326 650 
Q 1584 409 2034 409 
Q 2484 409 2743 651 
Q 3003 894 3003 1313 
Q 3003 1734 2745 1975 
Q 2488 2216 2034 2216 
z
M 1403 2484 
Q 997 2584 770 2862 
Q 544 3141 544 3541 
Q 544 4100 942 4425 
Q 1341 4750 2034 4750 
Q 2731 4750 3128 4425 
Q 3525 4100 3525 3541 
Q 3525 3141 3298 2862 
Q 3072 2584 2669 2484 
Q 3125 2378 3379 2068 
Q 3634 1759 3634 1313 
Q 3634 634 3220 271 
Q 2806 -91 2034 -91 
Q 1263 -91 848 271 
Q 434 634 434 1313 
Q 434 1759 690 2068 
Q 947 2378 1403 2484 
z
M 1172 3481 
Q 1172 3119 1398 2916 
Q 1625 2713 2034 2713 
Q 2441 2713 2670 2916 
Q 2900 3119 2900 3481 
Q 2900 3844 2670 4047 
Q 2441 4250 2034 4250 
Q 1625 4250 1398 4047 
Q 1172 3844 1172 3481 
z
" transform="scale(0.015625)"/>
       </defs>
       <use xlink:href="#DejaVuSans-30"/>
       <use xlink:href="#DejaVuSans-2e" x="63.623047"/>
       <use xlink:href="#DejaVuSans-38" x="95.410156"/>
      </g>
     </g>
    </g>
    <g id="text_32">
     <!-- Pearson Correlation Coefficient ($\rho$) -->
     <g transform="translate(437.709091 300.03)rotate(-90)scale(0.1 -0.1)">
      <defs>
       <path id="DejaVuSans-50" d="M 1259 4147 
L 1259 2394 
L 2053 2394 
Q 2494 2394 2734 2622 
Q 2975 2850 2975 3272 
Q 2975 3691 2734 3919 
Q 2494 4147 2053 4147 
L 1259 4147 
z
M 628 4666 
L 2053 4666 
Q 2838 4666 3239 4311 
Q 3641 3956 3641 3272 
Q 3641 2581 3239 2228 
Q 2838 1875 2053 1875 
L 1259 1875 
L 1259 0 
L 628 0 
L 628 4666 
z
" transform="scale(0.015625)"/>
       <path id="DejaVuSans-61" d="M 2194 1759 
Q 1497 1759 1228 1600 
Q 959 1441 959 1056 
Q 959 750 1161 570 
Q 1363 391 1709 391 
Q 2188 391 2477 730 
Q 2766 1069 2766 1631 
L 2766 1759 
L 2194 1759 
z
M 3341 1997 
L 3341 0 
L 2766 0 
L 2766 531 
Q 2569 213 2275 61 
Q 1981 -91 1556 -91 
Q 1019 -91 701 211 
Q 384 513 384 1019 
Q 384 1609 779 1909 
Q 1175 2209 1959 2209 
L 2766 2209 
L 2766 2266 
Q 2766 2663 2505 2880 
Q 2244 3097 1772 3097 
Q 1472 3097 1187 3025 
Q 903 2953 641 2809 
L 641 3341 
Q 956 3463 1253 3523 
Q 1550 3584 1831 3584 
Q 2591 3584 2966 3190 
Q 3341 2797 3341 1997 
z
" transform="scale(0.015625)"/>
       <path id="DejaVuSans-6e" d="M 3513 2113 
L 3513 0 
L 2938 0 
L 2938 2094 
Q 2938 2591 2744 2837 
Q 2550 3084 2163 3084 
Q 1697 3084 1428 2787 
Q 1159 2491 1159 1978 
L 1159 0 
L 581 0 
L 581 3500 
L 1159 3500 
L 1159 2956 
Q 1366 3272 1645 3428 
Q 1925 3584 2291 3584 
Q 2894 3584 3203 3211 
Q 3513 2838 3513 2113 
z
" transform="scale(0.015625)"/>
       <path id="DejaVuSans-43" d="M 4122 4306 
L 4122 3641 
Q 3803 3938 3442 4084 
Q 3081 4231 2675 4231 
Q 1875 4231 1450 3742 
Q 1025 3253 1025 2328 
Q 1025 1406 1450 917 
Q 1875 428 2675 428 
Q 3081 428 3442 575 
Q 3803 722 4122 1019 
L 4122 359 
Q 3791 134 3420 21 
Q 3050 -91 2638 -91 
Q 1578 -91 968 557 
Q 359 1206 359 2328 
Q 359 3453 968 4101 
Q 1578 4750 2638 4750 
Q 3056 4750 3426 4639 
Q 3797 4528 4122 4306 
z
" transform="scale(0.015625)"/>
       <path id="DejaVuSans-6c" d="M 603 4863 
L 1178 4863 
L 1178 0 
L 603 0 
L 603 4863 
z
" transform="scale(0.015625)"/>
       <path id="DejaVuSans-74" d="M 1172 4494 
L 1172 3500 
L 2356 3500 
L 2356 3053 
L 1172 3053 
L 1172 1153 
Q 1172 725 1289 603 
Q 1406 481 1766 481 
L 2356 481 
L 2356 0 
L 1766 0 
Q 1100 0 847 248 
Q 594 497 594 1153 
L 594 3053 
L 172 3053 
L 172 3500 
L 594 3500 
L 594 4494 
L 1172 4494 
z
" transform="scale(0.015625)"/>
       <path id="DejaVuSans-69" d="M 603 3500 
L 1178 3500 
L 1178 0 
L 603 0 
L 603 3500 
z
M 603 4863 
L 1178 4863 
L 1178 4134 
L 603 4134 
L 603 4863 
z
" transform="scale(0.015625)"/>
       <path id="DejaVuSans-66" d="M 2375 4863 
L 2375 4384 
L 1825 4384 
Q 1516 4384 1395 4259 
Q 1275 4134 1275 3809 
L 1275 3500 
L 2222 3500 
L 2222 3053 
L 1275 3053 
L 1275 0 
L 697 0 
L 697 3053 
L 147 3053 
L 147 3500 
L 697 3500 
L 697 3744 
Q 697 4328 969 4595 
Q 1241 4863 1831 4863 
L 2375 4863 
z
" transform="scale(0.015625)"/>
       <path id="DejaVuSans-28" d="M 1984 4856 
Q 1566 4138 1362 3434 
Q 1159 2731 1159 2009 
Q 1159 1288 1364 580 
Q 1569 -128 1984 -844 
L 1484 -844 
Q 1016 -109 783 600 
Q 550 1309 550 2009 
Q 550 2706 781 3412 
Q 1013 4119 1484 4856 
L 1984 4856 
z
" transform="scale(0.015625)"/>
       <path id="DejaVuSans-Oblique-3c1" d="M 1203 2875 
Q 1453 3194 1981 3475 
Q 2188 3584 2756 3584 
Q 3394 3584 3694 3078 
Q 3994 2572 3834 1747 
Q 3672 922 3175 415 
Q 2678 -91 2041 -91 
Q 1656 -91 1409 63 
Q 1163 213 1044 525 
L 681 -1331 
L 103 -1331 
L 697 1716 
Q 838 2438 1203 2875 
z
M 3238 1747 
Q 3359 2381 3169 2744 
Q 2978 3103 2522 3103 
Q 2066 3103 1734 2744 
Q 1403 2381 1281 1747 
Q 1156 1113 1347 750 
Q 1538 391 1994 391 
Q 2450 391 2781 750 
Q 3113 1113 3238 1747 
z
" transform="scale(0.015625)"/>
       <path id="DejaVuSans-29" d="M 513 4856 
L 1013 4856 
Q 1481 4119 1714 3412 
Q 1947 2706 1947 2009 
Q 1947 1309 1714 600 
Q 1481 -109 1013 -844 
L 513 -844 
Q 928 -128 1133 580 
Q 1338 1288 1338 2009 
Q 1338 2731 1133 3434 
Q 928 4138 513 4856 
z
" transform="scale(0.015625)"/>
      </defs>
      <use xlink:href="#DejaVuSans-50" transform="translate(0 0.015625)"/>
      <use xlink:href="#DejaVuSans-65" transform="translate(60.302734 0.015625)"/>
      <use xlink:href="#DejaVuSans-61" transform="translate(121.826172 0.015625)"/>
      <use xlink:href="#DejaVuSans-72" transform="translate(183.105469 0.015625)"/>
      <use xlink:href="#DejaVuSans-73" transform="translate(224.21875 0.015625)"/>
      <use xlink:href="#DejaVuSans-6f" transform="translate(276.318359 0.015625)"/>
      <use xlink:href="#DejaVuSans-6e" transform="translate(337.5 0.015625)"/>
      <use xlink:href="#DejaVuSans-20" transform="translate(400.878906 0.015625)"/>
      <use xlink:href="#DejaVuSans-43" transform="translate(432.666016 0.015625)"/>
      <use xlink:href="#DejaVuSans-6f" transform="translate(502.490234 0.015625)"/>
      <use xlink:href="#DejaVuSans-72" transform="translate(563.671875 0.015625)"/>
      <use xlink:href="#DejaVuSans-72" transform="translate(604.785156 0.015625)"/>
      <use xlink:href="#DejaVuSans-65" transform="translate(645.898438 0.015625)"/>
      <use xlink:href="#DejaVuSans-6c" transform="translate(707.421875 0.015625)"/>
      <use xlink:href="#DejaVuSans-61" transform="translate(735.205078 0.015625)"/>
      <use xlink:href="#DejaVuSans-74" transform="translate(796.484375 0.015625)"/>
      <use xlink:href="#DejaVuSans-69" transform="translate(835.693359 0.015625)"/>
      <use xlink:href="#DejaVuSans-6f" transform="translate(863.476562 0.015625)"/>
      <use xlink:href="#DejaVuSans-6e" transform="translate(924.658203 0.015625)"/>
      <use xlink:href="#DejaVuSans-20" transform="translate(988.037109 0.015625)"/>
      <use xlink:href="#DejaVuSans-43" transform="translate(1019.824219 0.015625)"/>
      <use xlink:href="#DejaVuSans-6f" transform="translate(1089.648438 0.015625)"/>
      <use xlink:href="#DejaVuSans-65" transform="translate(1150.830078 0.015625)"/>
      <use xlink:href="#DejaVuSans-66" transform="translate(1212.353516 0.015625)"/>
      <use xlink:href="#DejaVuSans-66" transform="translate(1247.558594 0.015625)"/>
      <use xlink:href="#DejaVuSans-69" transform="translate(1282.763672 0.015625)"/>
      <use xlink:href="#DejaVuSans-63" transform="translate(1310.546875 0.015625)"/>
      <use xlink:href="#DejaVuSans-69" transform="translate(1365.527344 0.015625)"/>
      <use xlink:href="#DejaVuSans-65" transform="translate(1393.310547 0.015625)"/>
      <use xlink:href="#DejaVuSans-6e" transform="translate(1454.833984 0.015625)"/>
      <use xlink:href="#DejaVuSans-74" transform="translate(1518.212891 0.015625)"/>
      <use xlink:href="#DejaVuSans-20" transform="translate(1557.421875 0.015625)"/>
      <use xlink:href="#DejaVuSans-28" transform="translate(1589.208984 0.015625)"/>
      <use xlink:href="#DejaVuSans-Oblique-3c1" transform="translate(1628.222656 0.015625)"/>
      <use xlink:href="#DejaVuSans-29" transform="translate(1691.699219 0.015625)"/>
     </g>
    </g>
   </g>
   <g id="line2d_56">
    <path d="M 482.852712 331.009873 
L 484.474872 341.993368 
L 486.097033 361.734545 
L 487.719193 339.618874 
L 492.585674 213.782915 
L 494.207834 214.375436 
L 495.829995 186.912363 
L 497.452155 174.531112 
L 499.074316 165.434216 
L 500.696476 164.058472 
L 502.318636 146.481611 
L 503.940797 135.544517 
L 505.562957 122.417767 
L 507.185118 119.314834 
L 508.807278 117.559138 
L 510.429438 114.861364 
L 512.051599 108.359692 
L 513.673759 108.334285 
L 515.29592 107.456189 
L 516.91808 105.185362 
L 518.54024 101.662492 
L 520.162401 99.934026 
L 521.784561 106.134741 
L 523.406721 96.75011 
L 525.028882 93.29749 
L 526.651042 98.156559 
L 528.273203 94.247459 
L 529.895363 96.516094 
L 531.517523 95.964378 
L 533.139684 95.02125 
L 534.761844 96.531499 
L 536.384005 92.060548 
L 538.006165 95.994737 
L 539.628325 89.419822 
L 541.250486 91.363879 
L 542.872646 88.105986 
L 544.494807 91.510732 
L 546.116967 89.495612 
L 549.361288 90.059697 
L 550.983448 86.647995 
L 552.605608 86.170154 
L 554.227769 87.120994 
L 555.849929 86.568332 
L 557.47209 83.964112 
L 559.09425 85.112448 
L 560.71641 88.367943 
L 562.338571 86.995502 
L 563.960731 84.95538 
L 565.582892 85.258543 
L 567.205052 82.852393 
L 568.827212 84.376738 
L 570.449373 85.387013 
L 572.071533 83.384076 
L 573.693694 84.055423 
L 575.315854 87.364004 
L 576.938014 80.935968 
L 578.560175 80.686524 
L 580.182335 80.624077 
L 581.804495 79.739104 
L 583.426656 81.87276 
L 585.048816 82.434743 
L 586.670977 80.312287 
L 588.293137 80.285134 
L 589.915297 82.504988 
L 591.537458 78.653907 
L 593.159618 80.969524 
L 594.781779 84.130723 
L 596.403939 80.672376 
L 598.026099 82.510906 
L 599.64826 81.03347 
L 601.27042 79.377857 
L 602.892581 76.832481 
L 604.514741 79.455673 
L 607.759062 76.363145 
L 609.381222 77.027308 
L 611.003382 76.7288 
L 612.625543 80.682838 
L 614.247703 81.885855 
L 615.869864 81.262829 
L 617.492024 76.185973 
L 619.114184 76.080057 
L 620.736345 76.929928 
L 622.358505 78.01443 
L 623.980666 80.715614 
L 625.602826 79.416959 
L 627.224986 79.375164 
L 628.847147 77.63638 
L 630.469307 77.790592 
L 632.091468 78.309629 
L 633.713628 76.957688 
L 635.335788 75.131582 
L 636.957949 77.807817 
L 638.580109 76.254002 
L 640.202269 75.893315 
L 641.82443 78.847679 
L 643.44659 75.412381 
L 645.068751 75.21653 
L 646.690911 73.120885 
L 649.935232 75.474276 
L 651.557392 75.229783 
L 653.179553 76.199011 
L 654.801713 76.233069 
L 656.423873 75.138023 
L 658.046034 73.380734 
L 659.668194 74.074356 
L 661.290355 74.03135 
L 662.912515 72.983547 
L 664.534675 76.121661 
L 666.156836 73.433525 
L 667.778996 74.25154 
L 669.401156 73.115454 
L 671.023317 74.210824 
L 672.645477 71.519921 
L 674.267638 71.418016 
L 675.889798 73.168567 
L 677.511958 74.251087 
L 679.134119 73.02876 
L 680.756279 70.644236 
L 682.37844 71.799372 
L 684.0006 73.131376 
L 685.62276 71.765376 
L 687.244921 71.543644 
L 688.867081 72.923711 
L 690.489242 70.994987 
L 692.111402 70.494545 
L 693.733562 70.348509 
L 695.355723 72.935485 
L 696.977883 70.526678 
L 698.600043 72.952278 
L 700.222204 69.965052 
L 701.844364 70.564225 
L 703.466525 69.531735 
L 705.088685 71.102821 
L 706.710845 69.853596 
L 709.955166 70.445492 
L 711.577327 70.795042 
L 713.199487 69.478603 
L 714.821647 68.431307 
L 716.443808 70.025683 
L 718.065968 70.666114 
L 719.688129 68.453912 
L 721.310289 69.455251 
L 722.932449 72.177421 
L 724.55461 69.458844 
L 726.17677 70.213883 
L 727.79893 68.004293 
L 729.421091 68.951445 
L 731.043251 71.138486 
L 732.665412 69.753266 
L 734.287572 69.043292 
L 735.909732 67.610126 
L 737.531893 68.307835 
L 739.154053 71.979705 
L 740.776214 69.136662 
L 742.398374 68.457081 
L 744.020534 68.527025 
L 745.642695 70.900417 
L 747.264855 67.216476 
L 748.887016 67.219149 
L 752.131336 68.664202 
L 753.753497 68.813451 
L 755.375657 69.753986 
L 756.997817 68.099569 
L 758.619978 68.376678 
L 760.242138 67.808571 
L 761.864299 68.393362 
L 763.486459 66.914719 
L 765.108619 68.723307 
L 766.73078 67.530044 
L 769.975101 66.915996 
L 771.597261 67.880123 
L 773.219421 68.059773 
L 774.841582 66.865703 
L 776.463742 68.951939 
L 778.085903 67.205602 
L 779.708063 66.502987 
L 781.330223 66.728319 
L 782.952384 65.633822 
L 784.574544 67.523592 
L 786.196704 66.692682 
L 787.818865 67.591417 
L 789.441025 67.106431 
L 791.063186 67.543359 
L 792.685346 67.355386 
L 794.307506 65.547088 
L 795.929667 65.225455 
L 797.551827 65.995385 
L 799.173988 66.627521 
L 800.796148 66.238458 
L 802.418308 67.408798 
L 804.040469 66.747218 
L 805.662629 67.789065 
L 805.662629 67.789065 
" clip-path="url(#p9a47246d9a)" style="fill: none; stroke: #1f77b4; stroke-width: 1.5; stroke-linecap: square"/>
   </g>
   <g id="line2d_57">
    <path d="M 482.852712 297.360212 
L 484.474872 340.823432 
L 486.097033 354.529459 
L 487.719193 314.535766 
L 489.341353 241.033743 
L 490.963514 211.874842 
L 492.585674 193.002563 
L 494.207834 171.541518 
L 495.829995 160.719935 
L 497.452155 152.028131 
L 499.074316 138.614501 
L 500.696476 136.627935 
L 502.318636 119.92127 
L 503.940797 111.62717 
L 505.562957 101.431086 
L 507.185118 98.648747 
L 508.807278 101.792088 
L 510.429438 96.416352 
L 512.051599 94.99486 
L 513.673759 95.59905 
L 515.29592 98.921726 
L 518.54024 92.417004 
L 520.162401 90.568546 
L 521.784561 91.692316 
L 523.406721 92.307286 
L 525.028882 92.34035 
L 526.651042 93.211355 
L 528.273203 89.722616 
L 529.895363 89.192875 
L 531.517523 91.798473 
L 533.139684 90.349427 
L 534.761844 90.205337 
L 536.384005 90.221551 
L 538.006165 92.502323 
L 539.628325 88.078084 
L 541.250486 89.573477 
L 542.872646 90.007361 
L 544.494807 90.104418 
L 546.116967 88.941129 
L 547.739127 91.423658 
L 549.361288 89.538337 
L 550.983448 89.200671 
L 552.605608 88.312666 
L 554.227769 90.493523 
L 555.849929 89.215122 
L 557.47209 89.82225 
L 559.09425 88.423617 
L 560.71641 87.720895 
L 562.338571 89.287295 
L 563.960731 88.24389 
L 565.582892 87.627432 
L 567.205052 89.989862 
L 568.827212 86.573229 
L 570.449373 88.175506 
L 572.071533 87.194399 
L 573.693694 89.238409 
L 575.315854 86.082412 
L 576.938014 88.130898 
L 578.560175 86.539172 
L 580.182335 88.359322 
L 581.804495 88.67275 
L 583.426656 87.798839 
L 585.048816 88.071918 
L 586.670977 87.772017 
L 588.293137 86.666168 
L 589.915297 87.558497 
L 591.537458 87.443844 
L 593.159618 87.613669 
L 594.781779 88.459269 
L 596.403939 85.858815 
L 598.026099 85.955006 
L 599.64826 88.317562 
L 601.27042 86.232394 
L 602.892581 86.685864 
L 604.514741 86.975348 
L 606.136901 86.616735 
L 607.759062 86.888126 
L 609.381222 84.737968 
L 611.003382 85.411891 
L 612.625543 86.647805 
L 614.247703 93.435047 
L 615.869864 87.60733 
L 617.492024 86.442153 
L 619.114184 85.010781 
L 620.736345 86.469738 
L 622.358505 86.210161 
L 623.980666 89.529801 
L 627.224986 87.51793 
L 628.847147 85.33759 
L 630.469307 88.702727 
L 632.091468 84.993206 
L 633.713628 85.735403 
L 635.335788 85.657207 
L 636.957949 86.336476 
L 638.580109 86.735506 
L 640.202269 90.887042 
L 641.82443 86.202285 
L 643.44659 84.711077 
L 645.068751 84.598746 
L 648.313071 85.054494 
L 649.935232 86.656741 
L 651.557392 86.994223 
L 653.179553 85.815974 
L 654.801713 84.845672 
L 656.423873 89.379367 
L 658.046034 88.412861 
L 659.668194 85.314187 
L 661.290355 87.82154 
L 662.912515 88.335539 
L 664.534675 93.877746 
L 666.156836 84.667117 
L 667.778996 85.369412 
L 669.401156 86.892227 
L 671.023317 88.75392 
L 672.645477 84.090547 
L 674.267638 85.318397 
L 675.889798 86.859129 
L 677.511958 85.198668 
L 679.134119 85.80288 
L 680.756279 84.919499 
L 682.37844 85.38796 
L 684.0006 88.238042 
L 685.62276 86.029819 
L 687.244921 87.536713 
L 688.867081 85.366731 
L 690.489242 84.581788 
L 692.111402 83.92922 
L 693.733562 84.24512 
L 695.355723 86.880893 
L 696.977883 86.687307 
L 698.600043 85.572033 
L 700.222204 85.959105 
L 701.844364 84.672121 
L 703.466525 85.085468 
L 705.088685 85.669676 
L 706.710845 87.090012 
L 708.333006 84.695591 
L 709.955166 87.035887 
L 711.577327 84.216128 
L 713.199487 85.240454 
L 714.821647 83.593388 
L 716.443808 85.852286 
L 718.065968 85.090631 
L 719.688129 85.618078 
L 721.310289 85.155395 
L 722.932449 85.833505 
L 724.55461 84.0751 
L 726.17677 84.605959 
L 727.79893 84.025894 
L 729.421091 84.71807 
L 731.043251 86.717018 
L 732.665412 85.833002 
L 734.287572 85.590011 
L 735.909732 84.684826 
L 737.531893 85.731818 
L 739.154053 91.529758 
L 740.776214 84.007432 
L 742.398374 83.545127 
L 744.020534 85.713185 
L 745.642695 85.632833 
L 747.264855 82.59466 
L 748.887016 85.626448 
L 750.509176 83.261093 
L 752.131336 85.857025 
L 753.753497 85.913592 
L 755.375657 86.371097 
L 756.997817 82.96957 
L 758.619978 84.686314 
L 760.242138 88.067824 
L 761.864299 88.121014 
L 763.486459 84.451426 
L 765.108619 86.114867 
L 766.73078 83.936662 
L 768.35294 87.43851 
L 769.975101 84.807315 
L 771.597261 82.849471 
L 773.219421 83.745063 
L 774.841582 83.216977 
L 776.463742 86.722748 
L 778.085903 88.067563 
L 779.708063 84.51596 
L 781.330223 83.789028 
L 782.952384 85.781956 
L 784.574544 85.196944 
L 786.196704 82.349925 
L 787.818865 83.035871 
L 789.441025 88.241371 
L 791.063186 83.547351 
L 792.685346 92.922934 
L 794.307506 83.853473 
L 795.929667 83.706282 
L 797.551827 85.837372 
L 799.173988 85.363492 
L 800.796148 85.599906 
L 802.418308 84.82957 
L 804.040469 84.874581 
L 805.662629 84.150293 
L 805.662629 84.150293 
" clip-path="url(#p9a47246d9a)" style="fill: none; stroke: #ff7f0e; stroke-width: 1.5; stroke-linecap: square"/>
   </g>
   <g id="patch_8">
    <path d="M 466.712216 376.56 
L 466.712216 50.4 
" style="fill: none; stroke: #000000; stroke-width: 0.8; stroke-linejoin: miter; stroke-linecap: square"/>
   </g>
   <g id="patch_9">
    <path d="M 821.803125 376.56 
L 821.803125 50.4 
" style="fill: none; stroke: #000000; stroke-width: 0.8; stroke-linejoin: miter; stroke-linecap: square"/>
   </g>
   <g id="patch_10">
    <path d="M 466.712216 376.56 
L 821.803125 376.56 
" style="fill: none; stroke: #000000; stroke-width: 0.8; stroke-linejoin: miter; stroke-linecap: square"/>
   </g>
   <g id="patch_11">
    <path d="M 466.712216 50.4 
L 821.803125 50.4 
" style="fill: none; stroke: #000000; stroke-width: 0.8; stroke-linejoin: miter; stroke-linecap: square"/>
   </g>
   <g id="text_33">
    <!-- Final $\rho$: 0.84 -->
    <g transform="translate(607.11767 44.4)scale(0.12 -0.12)">
     <defs>
      <path id="DejaVuSans-46" d="M 628 4666 
L 3309 4666 
L 3309 4134 
L 1259 4134 
L 1259 2759 
L 3109 2759 
L 3109 2228 
L 1259 2228 
L 1259 0 
L 628 0 
L 628 4666 
z
" transform="scale(0.015625)"/>
      <path id="DejaVuSans-3a" d="M 750 794 
L 1409 794 
L 1409 0 
L 750 0 
L 750 794 
z
M 750 3309 
L 1409 3309 
L 1409 2516 
L 750 2516 
L 750 3309 
z
" transform="scale(0.015625)"/>
     </defs>
     <use xlink:href="#DejaVuSans-46" transform="translate(0 0.015625)"/>
     <use xlink:href="#DejaVuSans-69" transform="translate(57.519531 0.015625)"/>
     <use xlink:href="#DejaVuSans-6e" transform="translate(85.302734 0.015625)"/>
     <use xlink:href="#DejaVuSans-61" transform="translate(148.681641 0.015625)"/>
     <use xlink:href="#DejaVuSans-6c" transform="translate(209.960938 0.015625)"/>
     <use xlink:href="#DejaVuSans-20" transform="translate(237.744141 0.015625)"/>
     <use xlink:href="#DejaVuSans-Oblique-3c1" transform="translate(269.53125 0.015625)"/>
     <use xlink:href="#DejaVuSans-3a" transform="translate(333.007812 0.015625)"/>
     <use xlink:href="#DejaVuSans-20" transform="translate(366.699219 0.015625)"/>
     <use xlink:href="#DejaVuSans-30" transform="translate(398.486328 0.015625)"/>
     <use xlink:href="#DejaVuSans-2e" transform="translate(462.109375 0.015625)"/>
     <use xlink:href="#DejaVuSans-38" transform="translate(491.271484 0.015625)"/>
     <use xlink:href="#DejaVuSans-34" transform="translate(554.894531 0.015625)"/>
    </g>
   </g>
   <g id="legend_1">
    <g id="patch_12">
     <path d="M 473.712216 87.75625 
L 529.699716 87.75625 
Q 531.699716 87.75625 531.699716 85.75625 
L 531.699716 57.4 
Q 531.699716 55.4 529.699716 55.4 
L 473.712216 55.4 
Q 471.712216 55.4 471.712216 57.4 
L 471.712216 85.75625 
Q 471.712216 87.75625 473.712216 87.75625 
z
" style="fill: #ffffff; opacity: 0.8; stroke: #cccccc; stroke-linejoin: miter"/>
    </g>
    <g id="line2d_58">
     <path d="M 475.712216 63.498437 
L 485.712216 63.498437 
L 495.712216 63.498437 
" style="fill: none; stroke: #1f77b4; stroke-width: 1.5; stroke-linecap: square"/>
    </g>
    <g id="text_34">
     <!-- Train -->
     <g transform="translate(503.712216 66.998437)scale(0.1 -0.1)">
      <defs>
       <path id="DejaVuSans-54" d="M -19 4666 
L 3928 4666 
L 3928 4134 
L 2272 4134 
L 2272 0 
L 1638 0 
L 1638 4134 
L -19 4134 
L -19 4666 
z
" transform="scale(0.015625)"/>
      </defs>
      <use xlink:href="#DejaVuSans-54"/>
      <use xlink:href="#DejaVuSans-72" x="46.333984"/>
      <use xlink:href="#DejaVuSans-61" x="87.447266"/>
      <use xlink:href="#DejaVuSans-69" x="148.726562"/>
      <use xlink:href="#DejaVuSans-6e" x="176.509766"/>
     </g>
    </g>
    <g id="line2d_59">
     <path d="M 475.712216 78.176562 
L 485.712216 78.176562 
L 495.712216 78.176562 
" style="fill: none; stroke: #ff7f0e; stroke-width: 1.5; stroke-linecap: square"/>
    </g>
    <g id="text_35">
     <!-- Test -->
     <g transform="translate(503.712216 81.676562)scale(0.1 -0.1)">
      <use xlink:href="#DejaVuSans-54"/>
      <use xlink:href="#DejaVuSans-65" x="44.083984"/>
      <use xlink:href="#DejaVuSans-73" x="105.607422"/>
      <use xlink:href="#DejaVuSans-74" x="157.707031"/>
     </g>
    </g>
   </g>
  </g>
  <g id="text_36">
   <!-- Fixed Acidity -->
   <g transform="translate(380.804062 16.318125)scale(0.12 -0.12)">
    <defs>
     <path id="DejaVuSans-78" d="M 3513 3500 
L 2247 1797 
L 3578 0 
L 2900 0 
L 1881 1375 
L 863 0 
L 184 0 
L 1544 1831 
L 300 3500 
L 978 3500 
L 1906 2253 
L 2834 3500 
L 3513 3500 
z
" transform="scale(0.015625)"/>
     <path id="DejaVuSans-64" d="M 2906 2969 
L 2906 4863 
L 3481 4863 
L 3481 0 
L 2906 0 
L 2906 525 
Q 2725 213 2448 61 
Q 2172 -91 1784 -91 
Q 1150 -91 751 415 
Q 353 922 353 1747 
Q 353 2572 751 3078 
Q 1150 3584 1784 3584 
Q 2172 3584 2448 3432 
Q 2725 3281 2906 2969 
z
M 947 1747 
Q 947 1113 1208 752 
Q 1469 391 1925 391 
Q 2381 391 2643 752 
Q 2906 1113 2906 1747 
Q 2906 2381 2643 2742 
Q 2381 3103 1925 3103 
Q 1469 3103 1208 2742 
Q 947 2381 947 1747 
z
" transform="scale(0.015625)"/>
     <path id="DejaVuSans-41" d="M 2188 4044 
L 1331 1722 
L 3047 1722 
L 2188 4044 
z
M 1831 4666 
L 2547 4666 
L 4325 0 
L 3669 0 
L 3244 1197 
L 1141 1197 
L 716 0 
L 50 0 
L 1831 4666 
z
" transform="scale(0.015625)"/>
     <path id="DejaVuSans-79" d="M 2059 -325 
Q 1816 -950 1584 -1140 
Q 1353 -1331 966 -1331 
L 506 -1331 
L 506 -850 
L 844 -850 
Q 1081 -850 1212 -737 
Q 1344 -625 1503 -206 
L 1606 56 
L 191 3500 
L 800 3500 
L 1894 763 
L 2988 3500 
L 3597 3500 
L 2059 -325 
z
" transform="scale(0.015625)"/>
    </defs>
    <use xlink:href="#DejaVuSans-46"/>
    <use xlink:href="#DejaVuSans-69" x="50.269531"/>
    <use xlink:href="#DejaVuSans-78" x="78.052734"/>
    <use xlink:href="#DejaVuSans-65" x="134.107422"/>
    <use xlink:href="#DejaVuSans-64" x="195.630859"/>
    <use xlink:href="#DejaVuSans-20" x="259.107422"/>
    <use xlink:href="#DejaVuSans-41" x="290.894531"/>
    <use xlink:href="#DejaVuSans-63" x="357.552734"/>
    <use xlink:href="#DejaVuSans-69" x="412.533203"/>
    <use xlink:href="#DejaVuSans-64" x="440.316406"/>
    <use xlink:href="#DejaVuSans-69" x="503.792969"/>
    <use xlink:href="#DejaVuSans-74" x="531.576172"/>
    <use xlink:href="#DejaVuSans-79" x="570.785156"/>
   </g>
  </g>
 </g>
 <defs>
  <clipPath id="p6628aef600">
   <rect x="40.603125" y="50.4" width="355.090909" height="326.16"/>
  </clipPath>
  <clipPath id="p9a47246d9a">
   <rect x="466.712216" y="50.4" width="355.090909" height="326.16"/>
  </clipPath>
 </defs>
</svg>
