<?xml version="1.0" encoding="utf-8" standalone="no"?>
<!DOCTYPE svg PUBLIC "-//W3C//DTD SVG 1.1//EN"
  "http://www.w3.org/Graphics/SVG/1.1/DTD/svg11.dtd">
<svg xmlns:xlink="http://www.w3.org/1999/xlink" width="720.58125pt" height="331.674375pt" viewBox="0 0 720.58125 331.674375" xmlns="http://www.w3.org/2000/svg" version="1.1">
 <metadata>
  <rdf:RDF xmlns:dc="http://purl.org/dc/elements/1.1/" xmlns:cc="http://creativecommons.org/ns#" xmlns:rdf="http://www.w3.org/1999/02/22-rdf-syntax-ns#">
   <cc:Work>
    <dc:type rdf:resource="http://purl.org/dc/dcmitype/StillImage"/>
    <dc:date>2023-03-01T15:47:35.611568</dc:date>
    <dc:format>image/svg+xml</dc:format>
    <dc:creator>
     <cc:Agent>
      <dc:title>Matplotlib v3.5.1, https://matplotlib.org/</dc:title>
     </cc:Agent>
    </dc:creator>
   </cc:Work>
  </rdf:RDF>
 </metadata>
 <defs>
  <style type="text/css">*{stroke-linejoin: round; stroke-linecap: butt}</style>
 </defs>
 <g id="figure_1">
  <g id="patch_1">
   <path d="M 0 331.674375 
L 720.58125 331.674375 
L 720.58125 0 
L 0 0 
L 0 331.674375 
z
" style="fill: none"/>
  </g>
  <g id="axes_1">
   <g id="patch_2">
    <path d="M 43.78125 294.118125 
L 348.144886 294.118125 
L 348.144886 22.318125 
L 43.78125 22.318125 
z
" style="fill: #ffffff"/>
   </g>
   <g id="matplotlib.axis_1">
    <g id="xtick_1">
     <g id="line2d_1">
      <path d="M 57.615961 294.118125 
L 57.615961 22.318125 
" clip-path="url(#pdaec853edb)" style="fill: none; stroke: #b0b0b0; stroke-width: 0.8; stroke-linecap: square"/>
     </g>
     <g id="line2d_2">
      <defs>
       <path id="m2522a72715" d="M 0 0 
L 0 3.5 
" style="stroke: #000000; stroke-width: 0.8"/>
      </defs>
      <g>
       <use xlink:href="#m2522a72715" x="57.615961" y="294.118125" style="stroke: #000000; stroke-width: 0.8"/>
      </g>
     </g>
     <g id="text_1">
      <!-- 0 -->
      <g transform="translate(54.434711 308.716563)scale(0.1 -0.1)">
       <defs>
        <path id="DejaVuSans-30" d="M 2034 4250 
Q 1547 4250 1301 3770 
Q 1056 3291 1056 2328 
Q 1056 1369 1301 889 
Q 1547 409 2034 409 
Q 2525 409 2770 889 
Q 3016 1369 3016 2328 
Q 3016 3291 2770 3770 
Q 2525 4250 2034 4250 
z
M 2034 4750 
Q 2819 4750 3233 4129 
Q 3647 3509 3647 2328 
Q 3647 1150 3233 529 
Q 2819 -91 2034 -91 
Q 1250 -91 836 529 
Q 422 1150 422 2328 
Q 422 3509 836 4129 
Q 1250 4750 2034 4750 
z
" transform="scale(0.015625)"/>
       </defs>
       <use xlink:href="#DejaVuSans-30"/>
      </g>
     </g>
    </g>
    <g id="xtick_2">
     <g id="line2d_3">
      <path d="M 92.376541 294.118125 
L 92.376541 22.318125 
" clip-path="url(#pdaec853edb)" style="fill: none; stroke: #b0b0b0; stroke-width: 0.8; stroke-linecap: square"/>
     </g>
     <g id="line2d_4">
      <g>
       <use xlink:href="#m2522a72715" x="92.376541" y="294.118125" style="stroke: #000000; stroke-width: 0.8"/>
      </g>
     </g>
     <g id="text_2">
      <!-- 25 -->
      <g transform="translate(86.014041 308.716563)scale(0.1 -0.1)">
       <defs>
        <path id="DejaVuSans-32" d="M 1228 531 
L 3431 531 
L 3431 0 
L 469 0 
L 469 531 
Q 828 903 1448 1529 
Q 2069 2156 2228 2338 
Q 2531 2678 2651 2914 
Q 2772 3150 2772 3378 
Q 2772 3750 2511 3984 
Q 2250 4219 1831 4219 
Q 1534 4219 1204 4116 
Q 875 4013 500 3803 
L 500 4441 
Q 881 4594 1212 4672 
Q 1544 4750 1819 4750 
Q 2544 4750 2975 4387 
Q 3406 4025 3406 3419 
Q 3406 3131 3298 2873 
Q 3191 2616 2906 2266 
Q 2828 2175 2409 1742 
Q 1991 1309 1228 531 
z
" transform="scale(0.015625)"/>
        <path id="DejaVuSans-35" d="M 691 4666 
L 3169 4666 
L 3169 4134 
L 1269 4134 
L 1269 2991 
Q 1406 3038 1543 3061 
Q 1681 3084 1819 3084 
Q 2600 3084 3056 2656 
Q 3513 2228 3513 1497 
Q 3513 744 3044 326 
Q 2575 -91 1722 -91 
Q 1428 -91 1123 -41 
Q 819 9 494 109 
L 494 744 
Q 775 591 1075 516 
Q 1375 441 1709 441 
Q 2250 441 2565 725 
Q 2881 1009 2881 1497 
Q 2881 1984 2565 2268 
Q 2250 2553 1709 2553 
Q 1456 2553 1204 2497 
Q 953 2441 691 2322 
L 691 4666 
z
" transform="scale(0.015625)"/>
       </defs>
       <use xlink:href="#DejaVuSans-32"/>
       <use xlink:href="#DejaVuSans-35" x="63.623047"/>
      </g>
     </g>
    </g>
    <g id="xtick_3">
     <g id="line2d_5">
      <path d="M 127.13712 294.118125 
L 127.13712 22.318125 
" clip-path="url(#pdaec853edb)" style="fill: none; stroke: #b0b0b0; stroke-width: 0.8; stroke-linecap: square"/>
     </g>
     <g id="line2d_6">
      <g>
       <use xlink:href="#m2522a72715" x="127.13712" y="294.118125" style="stroke: #000000; stroke-width: 0.8"/>
      </g>
     </g>
     <g id="text_3">
      <!-- 50 -->
      <g transform="translate(120.77462 308.716563)scale(0.1 -0.1)">
       <use xlink:href="#DejaVuSans-35"/>
       <use xlink:href="#DejaVuSans-30" x="63.623047"/>
      </g>
     </g>
    </g>
    <g id="xtick_4">
     <g id="line2d_7">
      <path d="M 161.8977 294.118125 
L 161.8977 22.318125 
" clip-path="url(#pdaec853edb)" style="fill: none; stroke: #b0b0b0; stroke-width: 0.8; stroke-linecap: square"/>
     </g>
     <g id="line2d_8">
      <g>
       <use xlink:href="#m2522a72715" x="161.8977" y="294.118125" style="stroke: #000000; stroke-width: 0.8"/>
      </g>
     </g>
     <g id="text_4">
      <!-- 75 -->
      <g transform="translate(155.5352 308.716563)scale(0.1 -0.1)">
       <defs>
        <path id="DejaVuSans-37" d="M 525 4666 
L 3525 4666 
L 3525 4397 
L 1831 0 
L 1172 0 
L 2766 4134 
L 525 4134 
L 525 4666 
z
" transform="scale(0.015625)"/>
       </defs>
       <use xlink:href="#DejaVuSans-37"/>
       <use xlink:href="#DejaVuSans-35" x="63.623047"/>
      </g>
     </g>
    </g>
    <g id="xtick_5">
     <g id="line2d_9">
      <path d="M 196.65828 294.118125 
L 196.65828 22.318125 
" clip-path="url(#pdaec853edb)" style="fill: none; stroke: #b0b0b0; stroke-width: 0.8; stroke-linecap: square"/>
     </g>
     <g id="line2d_10">
      <g>
       <use xlink:href="#m2522a72715" x="196.65828" y="294.118125" style="stroke: #000000; stroke-width: 0.8"/>
      </g>
     </g>
     <g id="text_5">
      <!-- 100 -->
      <g transform="translate(187.11453 308.716563)scale(0.1 -0.1)">
       <defs>
        <path id="DejaVuSans-31" d="M 794 531 
L 1825 531 
L 1825 4091 
L 703 3866 
L 703 4441 
L 1819 4666 
L 2450 4666 
L 2450 531 
L 3481 531 
L 3481 0 
L 794 0 
L 794 531 
z
" transform="scale(0.015625)"/>
       </defs>
       <use xlink:href="#DejaVuSans-31"/>
       <use xlink:href="#DejaVuSans-30" x="63.623047"/>
       <use xlink:href="#DejaVuSans-30" x="127.246094"/>
      </g>
     </g>
    </g>
    <g id="xtick_6">
     <g id="line2d_11">
      <path d="M 231.41886 294.118125 
L 231.41886 22.318125 
" clip-path="url(#pdaec853edb)" style="fill: none; stroke: #b0b0b0; stroke-width: 0.8; stroke-linecap: square"/>
     </g>
     <g id="line2d_12">
      <g>
       <use xlink:href="#m2522a72715" x="231.41886" y="294.118125" style="stroke: #000000; stroke-width: 0.8"/>
      </g>
     </g>
     <g id="text_6">
      <!-- 125 -->
      <g transform="translate(221.87511 308.716563)scale(0.1 -0.1)">
       <use xlink:href="#DejaVuSans-31"/>
       <use xlink:href="#DejaVuSans-32" x="63.623047"/>
       <use xlink:href="#DejaVuSans-35" x="127.246094"/>
      </g>
     </g>
    </g>
    <g id="xtick_7">
     <g id="line2d_13">
      <path d="M 266.179439 294.118125 
L 266.179439 22.318125 
" clip-path="url(#pdaec853edb)" style="fill: none; stroke: #b0b0b0; stroke-width: 0.8; stroke-linecap: square"/>
     </g>
     <g id="line2d_14">
      <g>
       <use xlink:href="#m2522a72715" x="266.179439" y="294.118125" style="stroke: #000000; stroke-width: 0.8"/>
      </g>
     </g>
     <g id="text_7">
      <!-- 150 -->
      <g transform="translate(256.635689 308.716563)scale(0.1 -0.1)">
       <use xlink:href="#DejaVuSans-31"/>
       <use xlink:href="#DejaVuSans-35" x="63.623047"/>
       <use xlink:href="#DejaVuSans-30" x="127.246094"/>
      </g>
     </g>
    </g>
    <g id="xtick_8">
     <g id="line2d_15">
      <path d="M 300.940019 294.118125 
L 300.940019 22.318125 
" clip-path="url(#pdaec853edb)" style="fill: none; stroke: #b0b0b0; stroke-width: 0.8; stroke-linecap: square"/>
     </g>
     <g id="line2d_16">
      <g>
       <use xlink:href="#m2522a72715" x="300.940019" y="294.118125" style="stroke: #000000; stroke-width: 0.8"/>
      </g>
     </g>
     <g id="text_8">
      <!-- 175 -->
      <g transform="translate(291.396269 308.716563)scale(0.1 -0.1)">
       <use xlink:href="#DejaVuSans-31"/>
       <use xlink:href="#DejaVuSans-37" x="63.623047"/>
       <use xlink:href="#DejaVuSans-35" x="127.246094"/>
      </g>
     </g>
    </g>
    <g id="xtick_9">
     <g id="line2d_17">
      <path d="M 335.700599 294.118125 
L 335.700599 22.318125 
" clip-path="url(#pdaec853edb)" style="fill: none; stroke: #b0b0b0; stroke-width: 0.8; stroke-linecap: square"/>
     </g>
     <g id="line2d_18">
      <g>
       <use xlink:href="#m2522a72715" x="335.700599" y="294.118125" style="stroke: #000000; stroke-width: 0.8"/>
      </g>
     </g>
     <g id="text_9">
      <!-- 200 -->
      <g transform="translate(326.156849 308.716563)scale(0.1 -0.1)">
       <use xlink:href="#DejaVuSans-32"/>
       <use xlink:href="#DejaVuSans-30" x="63.623047"/>
       <use xlink:href="#DejaVuSans-30" x="127.246094"/>
      </g>
     </g>
    </g>
    <g id="text_10">
     <!-- Epoch -->
     <g transform="translate(180.652131 322.394687)scale(0.1 -0.1)">
      <defs>
       <path id="DejaVuSans-45" d="M 628 4666 
L 3578 4666 
L 3578 4134 
L 1259 4134 
L 1259 2753 
L 3481 2753 
L 3481 2222 
L 1259 2222 
L 1259 531 
L 3634 531 
L 3634 0 
L 628 0 
L 628 4666 
z
" transform="scale(0.015625)"/>
       <path id="DejaVuSans-70" d="M 1159 525 
L 1159 -1331 
L 581 -1331 
L 581 3500 
L 1159 3500 
L 1159 2969 
Q 1341 3281 1617 3432 
Q 1894 3584 2278 3584 
Q 2916 3584 3314 3078 
Q 3713 2572 3713 1747 
Q 3713 922 3314 415 
Q 2916 -91 2278 -91 
Q 1894 -91 1617 61 
Q 1341 213 1159 525 
z
M 3116 1747 
Q 3116 2381 2855 2742 
Q 2594 3103 2138 3103 
Q 1681 3103 1420 2742 
Q 1159 2381 1159 1747 
Q 1159 1113 1420 752 
Q 1681 391 2138 391 
Q 2594 391 2855 752 
Q 3116 1113 3116 1747 
z
" transform="scale(0.015625)"/>
       <path id="DejaVuSans-6f" d="M 1959 3097 
Q 1497 3097 1228 2736 
Q 959 2375 959 1747 
Q 959 1119 1226 758 
Q 1494 397 1959 397 
Q 2419 397 2687 759 
Q 2956 1122 2956 1747 
Q 2956 2369 2687 2733 
Q 2419 3097 1959 3097 
z
M 1959 3584 
Q 2709 3584 3137 3096 
Q 3566 2609 3566 1747 
Q 3566 888 3137 398 
Q 2709 -91 1959 -91 
Q 1206 -91 779 398 
Q 353 888 353 1747 
Q 353 2609 779 3096 
Q 1206 3584 1959 3584 
z
" transform="scale(0.015625)"/>
       <path id="DejaVuSans-63" d="M 3122 3366 
L 3122 2828 
Q 2878 2963 2633 3030 
Q 2388 3097 2138 3097 
Q 1578 3097 1268 2742 
Q 959 2388 959 1747 
Q 959 1106 1268 751 
Q 1578 397 2138 397 
Q 2388 397 2633 464 
Q 2878 531 3122 666 
L 3122 134 
Q 2881 22 2623 -34 
Q 2366 -91 2075 -91 
Q 1284 -91 818 406 
Q 353 903 353 1747 
Q 353 2603 823 3093 
Q 1294 3584 2113 3584 
Q 2378 3584 2631 3529 
Q 2884 3475 3122 3366 
z
" transform="scale(0.015625)"/>
       <path id="DejaVuSans-68" d="M 3513 2113 
L 3513 0 
L 2938 0 
L 2938 2094 
Q 2938 2591 2744 2837 
Q 2550 3084 2163 3084 
Q 1697 3084 1428 2787 
Q 1159 2491 1159 1978 
L 1159 0 
L 581 0 
L 581 4863 
L 1159 4863 
L 1159 2956 
Q 1366 3272 1645 3428 
Q 1925 3584 2291 3584 
Q 2894 3584 3203 3211 
Q 3513 2838 3513 2113 
z
" transform="scale(0.015625)"/>
      </defs>
      <use xlink:href="#DejaVuSans-45"/>
      <use xlink:href="#DejaVuSans-70" x="63.183594"/>
      <use xlink:href="#DejaVuSans-6f" x="126.660156"/>
      <use xlink:href="#DejaVuSans-63" x="187.841797"/>
      <use xlink:href="#DejaVuSans-68" x="242.822266"/>
     </g>
    </g>
   </g>
   <g id="matplotlib.axis_2">
    <g id="ytick_1">
     <g id="line2d_19">
      <path d="M 43.78125 281.822725 
L 348.144886 281.822725 
" clip-path="url(#pdaec853edb)" style="fill: none; stroke: #b0b0b0; stroke-width: 0.8; stroke-linecap: square"/>
     </g>
     <g id="line2d_20">
      <defs>
       <path id="ma948bdf46e" d="M 0 0 
L -3.5 0 
" style="stroke: #000000; stroke-width: 0.8"/>
      </defs>
      <g>
       <use xlink:href="#ma948bdf46e" x="43.78125" y="281.822725" style="stroke: #000000; stroke-width: 0.8"/>
      </g>
     </g>
     <g id="text_11">
      <!-- 0.0 -->
      <g transform="translate(20.878125 285.621944)scale(0.1 -0.1)">
       <defs>
        <path id="DejaVuSans-2e" d="M 684 794 
L 1344 794 
L 1344 0 
L 684 0 
L 684 794 
z
" transform="scale(0.015625)"/>
       </defs>
       <use xlink:href="#DejaVuSans-30"/>
       <use xlink:href="#DejaVuSans-2e" x="63.623047"/>
       <use xlink:href="#DejaVuSans-30" x="95.410156"/>
      </g>
     </g>
    </g>
    <g id="ytick_2">
     <g id="line2d_21">
      <path d="M 43.78125 239.213741 
L 348.144886 239.213741 
" clip-path="url(#pdaec853edb)" style="fill: none; stroke: #b0b0b0; stroke-width: 0.8; stroke-linecap: square"/>
     </g>
     <g id="line2d_22">
      <g>
       <use xlink:href="#ma948bdf46e" x="43.78125" y="239.213741" style="stroke: #000000; stroke-width: 0.8"/>
      </g>
     </g>
     <g id="text_12">
      <!-- 0.1 -->
      <g transform="translate(20.878125 243.01296)scale(0.1 -0.1)">
       <use xlink:href="#DejaVuSans-30"/>
       <use xlink:href="#DejaVuSans-2e" x="63.623047"/>
       <use xlink:href="#DejaVuSans-31" x="95.410156"/>
      </g>
     </g>
    </g>
    <g id="ytick_3">
     <g id="line2d_23">
      <path d="M 43.78125 196.604757 
L 348.144886 196.604757 
" clip-path="url(#pdaec853edb)" style="fill: none; stroke: #b0b0b0; stroke-width: 0.8; stroke-linecap: square"/>
     </g>
     <g id="line2d_24">
      <g>
       <use xlink:href="#ma948bdf46e" x="43.78125" y="196.604757" style="stroke: #000000; stroke-width: 0.8"/>
      </g>
     </g>
     <g id="text_13">
      <!-- 0.2 -->
      <g transform="translate(20.878125 200.403976)scale(0.1 -0.1)">
       <use xlink:href="#DejaVuSans-30"/>
       <use xlink:href="#DejaVuSans-2e" x="63.623047"/>
       <use xlink:href="#DejaVuSans-32" x="95.410156"/>
      </g>
     </g>
    </g>
    <g id="ytick_4">
     <g id="line2d_25">
      <path d="M 43.78125 153.995774 
L 348.144886 153.995774 
" clip-path="url(#pdaec853edb)" style="fill: none; stroke: #b0b0b0; stroke-width: 0.8; stroke-linecap: square"/>
     </g>
     <g id="line2d_26">
      <g>
       <use xlink:href="#ma948bdf46e" x="43.78125" y="153.995774" style="stroke: #000000; stroke-width: 0.8"/>
      </g>
     </g>
     <g id="text_14">
      <!-- 0.3 -->
      <g transform="translate(20.878125 157.794992)scale(0.1 -0.1)">
       <defs>
        <path id="DejaVuSans-33" d="M 2597 2516 
Q 3050 2419 3304 2112 
Q 3559 1806 3559 1356 
Q 3559 666 3084 287 
Q 2609 -91 1734 -91 
Q 1441 -91 1130 -33 
Q 819 25 488 141 
L 488 750 
Q 750 597 1062 519 
Q 1375 441 1716 441 
Q 2309 441 2620 675 
Q 2931 909 2931 1356 
Q 2931 1769 2642 2001 
Q 2353 2234 1838 2234 
L 1294 2234 
L 1294 2753 
L 1863 2753 
Q 2328 2753 2575 2939 
Q 2822 3125 2822 3475 
Q 2822 3834 2567 4026 
Q 2313 4219 1838 4219 
Q 1578 4219 1281 4162 
Q 984 4106 628 3988 
L 628 4550 
Q 988 4650 1302 4700 
Q 1616 4750 1894 4750 
Q 2613 4750 3031 4423 
Q 3450 4097 3450 3541 
Q 3450 3153 3228 2886 
Q 3006 2619 2597 2516 
z
" transform="scale(0.015625)"/>
       </defs>
       <use xlink:href="#DejaVuSans-30"/>
       <use xlink:href="#DejaVuSans-2e" x="63.623047"/>
       <use xlink:href="#DejaVuSans-33" x="95.410156"/>
      </g>
     </g>
    </g>
    <g id="ytick_5">
     <g id="line2d_27">
      <path d="M 43.78125 111.38679 
L 348.144886 111.38679 
" clip-path="url(#pdaec853edb)" style="fill: none; stroke: #b0b0b0; stroke-width: 0.8; stroke-linecap: square"/>
     </g>
     <g id="line2d_28">
      <g>
       <use xlink:href="#ma948bdf46e" x="43.78125" y="111.38679" style="stroke: #000000; stroke-width: 0.8"/>
      </g>
     </g>
     <g id="text_15">
      <!-- 0.4 -->
      <g transform="translate(20.878125 115.186009)scale(0.1 -0.1)">
       <defs>
        <path id="DejaVuSans-34" d="M 2419 4116 
L 825 1625 
L 2419 1625 
L 2419 4116 
z
M 2253 4666 
L 3047 4666 
L 3047 1625 
L 3713 1625 
L 3713 1100 
L 3047 1100 
L 3047 0 
L 2419 0 
L 2419 1100 
L 313 1100 
L 313 1709 
L 2253 4666 
z
" transform="scale(0.015625)"/>
       </defs>
       <use xlink:href="#DejaVuSans-30"/>
       <use xlink:href="#DejaVuSans-2e" x="63.623047"/>
       <use xlink:href="#DejaVuSans-34" x="95.410156"/>
      </g>
     </g>
    </g>
    <g id="ytick_6">
     <g id="line2d_29">
      <path d="M 43.78125 68.777806 
L 348.144886 68.777806 
" clip-path="url(#pdaec853edb)" style="fill: none; stroke: #b0b0b0; stroke-width: 0.8; stroke-linecap: square"/>
     </g>
     <g id="line2d_30">
      <g>
       <use xlink:href="#ma948bdf46e" x="43.78125" y="68.777806" style="stroke: #000000; stroke-width: 0.8"/>
      </g>
     </g>
     <g id="text_16">
      <!-- 0.5 -->
      <g transform="translate(20.878125 72.577025)scale(0.1 -0.1)">
       <use xlink:href="#DejaVuSans-30"/>
       <use xlink:href="#DejaVuSans-2e" x="63.623047"/>
       <use xlink:href="#DejaVuSans-35" x="95.410156"/>
      </g>
     </g>
    </g>
    <g id="ytick_7">
     <g id="line2d_31">
      <path d="M 43.78125 26.168822 
L 348.144886 26.168822 
" clip-path="url(#pdaec853edb)" style="fill: none; stroke: #b0b0b0; stroke-width: 0.8; stroke-linecap: square"/>
     </g>
     <g id="line2d_32">
      <g>
       <use xlink:href="#ma948bdf46e" x="43.78125" y="26.168822" style="stroke: #000000; stroke-width: 0.8"/>
      </g>
     </g>
     <g id="text_17">
      <!-- 0.6 -->
      <g transform="translate(20.878125 29.968041)scale(0.1 -0.1)">
       <defs>
        <path id="DejaVuSans-36" d="M 2113 2584 
Q 1688 2584 1439 2293 
Q 1191 2003 1191 1497 
Q 1191 994 1439 701 
Q 1688 409 2113 409 
Q 2538 409 2786 701 
Q 3034 994 3034 1497 
Q 3034 2003 2786 2293 
Q 2538 2584 2113 2584 
z
M 3366 4563 
L 3366 3988 
Q 3128 4100 2886 4159 
Q 2644 4219 2406 4219 
Q 1781 4219 1451 3797 
Q 1122 3375 1075 2522 
Q 1259 2794 1537 2939 
Q 1816 3084 2150 3084 
Q 2853 3084 3261 2657 
Q 3669 2231 3669 1497 
Q 3669 778 3244 343 
Q 2819 -91 2113 -91 
Q 1303 -91 875 529 
Q 447 1150 447 2328 
Q 447 3434 972 4092 
Q 1497 4750 2381 4750 
Q 2619 4750 2861 4703 
Q 3103 4656 3366 4563 
z
" transform="scale(0.015625)"/>
       </defs>
       <use xlink:href="#DejaVuSans-30"/>
       <use xlink:href="#DejaVuSans-2e" x="63.623047"/>
       <use xlink:href="#DejaVuSans-36" x="95.410156"/>
      </g>
     </g>
    </g>
    <g id="text_18">
     <!-- Loss -->
     <g transform="translate(14.798438 169.185313)rotate(-90)scale(0.1 -0.1)">
      <defs>
       <path id="DejaVuSans-4c" d="M 628 4666 
L 1259 4666 
L 1259 531 
L 3531 531 
L 3531 0 
L 628 0 
L 628 4666 
z
" transform="scale(0.015625)"/>
       <path id="DejaVuSans-73" d="M 2834 3397 
L 2834 2853 
Q 2591 2978 2328 3040 
Q 2066 3103 1784 3103 
Q 1356 3103 1142 2972 
Q 928 2841 928 2578 
Q 928 2378 1081 2264 
Q 1234 2150 1697 2047 
L 1894 2003 
Q 2506 1872 2764 1633 
Q 3022 1394 3022 966 
Q 3022 478 2636 193 
Q 2250 -91 1575 -91 
Q 1294 -91 989 -36 
Q 684 19 347 128 
L 347 722 
Q 666 556 975 473 
Q 1284 391 1588 391 
Q 1994 391 2212 530 
Q 2431 669 2431 922 
Q 2431 1156 2273 1281 
Q 2116 1406 1581 1522 
L 1381 1569 
Q 847 1681 609 1914 
Q 372 2147 372 2553 
Q 372 3047 722 3315 
Q 1072 3584 1716 3584 
Q 2034 3584 2315 3537 
Q 2597 3491 2834 3397 
z
" transform="scale(0.015625)"/>
      </defs>
      <use xlink:href="#DejaVuSans-4c"/>
      <use xlink:href="#DejaVuSans-6f" x="53.962891"/>
      <use xlink:href="#DejaVuSans-73" x="115.144531"/>
      <use xlink:href="#DejaVuSans-73" x="167.244141"/>
     </g>
    </g>
   </g>
   <g id="line2d_33">
    <path d="M 57.615961 34.67267 
L 59.006384 146.747623 
L 60.396807 231.903487 
L 61.78723 254.670702 
L 63.177654 262.662544 
L 64.568077 266.8891 
L 65.9585 265.243564 
L 67.348923 266.338462 
L 68.739346 268.601884 
L 71.520193 270.568183 
L 72.910616 270.996876 
L 74.301039 271.168542 
L 75.691462 271.014263 
L 77.081885 272.489674 
L 78.472309 271.328621 
L 79.862732 272.966631 
L 81.253155 273.496963 
L 82.643578 272.997395 
L 84.034001 275.357648 
L 85.424425 274.984933 
L 86.814848 276.292008 
L 88.205271 275.507184 
L 89.595694 275.389095 
L 90.986117 275.051869 
L 92.376541 271.607503 
L 93.766964 275.582108 
L 95.157387 277.210143 
L 96.54781 278.192426 
L 97.938233 276.755625 
L 99.328656 278.028986 
L 100.71908 276.735417 
L 102.109503 277.892187 
L 103.499926 276.436999 
L 104.890349 278.242446 
L 106.280772 275.287942 
L 107.671196 278.277904 
L 109.061619 279.347651 
L 110.452042 278.323225 
L 113.232888 277.918678 
L 114.623312 278.178347 
L 116.013735 279.586943 
L 117.404158 278.418314 
L 118.794581 279.163003 
L 120.185004 278.812039 
L 121.575427 278.887533 
L 122.965851 277.079049 
L 124.356274 279.795305 
L 125.746697 277.84518 
L 127.13712 277.843834 
L 128.527543 279.691641 
L 129.917967 278.858612 
L 131.30839 277.707722 
L 132.698813 277.977827 
L 134.089236 276.839324 
L 135.479659 280.059451 
L 136.870083 279.944837 
L 138.260506 279.27502 
L 139.650929 278.136441 
L 141.041352 279.310463 
L 142.431775 278.889825 
L 143.822199 278.946839 
L 145.212622 277.229 
L 146.603045 280.076548 
L 147.993468 280.269022 
L 149.383891 280.068013 
L 150.774314 280.053835 
L 152.164738 280.557962 
L 153.555161 279.515452 
L 154.945584 280.292434 
L 156.336007 279.504828 
L 157.72643 280.3606 
L 159.116854 280.633382 
L 160.507277 280.659334 
L 161.8977 279.153338 
L 163.288123 279.607365 
L 164.678546 280.471438 
L 166.06897 280.680181 
L 167.459393 280.338651 
L 168.849816 280.769896 
L 170.240239 280.683122 
L 171.630662 280.192445 
L 173.021086 279.264927 
L 174.411509 280.372601 
L 175.801932 279.965107 
L 177.192355 278.765598 
L 178.582778 280.22971 
L 179.973201 279.203654 
L 181.363625 280.596676 
L 182.754048 280.948519 
L 185.534894 280.234105 
L 186.925317 280.826059 
L 188.315741 280.383788 
L 189.706164 280.985772 
L 191.096587 281.198782 
L 192.48701 280.258096 
L 193.877433 280.771329 
L 195.267857 280.772703 
L 196.65828 281.128143 
L 198.048703 280.315945 
L 199.439126 281.236982 
L 200.829549 280.495526 
L 202.219973 281.46178 
L 203.610396 280.568212 
L 205.000819 281.106774 
L 206.391242 279.694437 
L 209.172088 280.978662 
L 210.562512 281.010485 
L 211.952935 280.592041 
L 213.343358 281.076261 
L 214.733781 281.343565 
L 216.124204 281.244942 
L 217.514628 280.819182 
L 218.905051 281.436144 
L 220.295474 280.954727 
L 221.685897 280.280844 
L 223.07632 281.659576 
L 227.24759 281.492838 
L 228.638013 281.621436 
L 232.809283 281.501098 
L 234.199706 279.864009 
L 235.590129 277.396658 
L 236.980552 280.344096 
L 238.370975 279.911788 
L 239.761399 281.264136 
L 241.151822 281.668831 
L 242.542245 281.531728 
L 243.932668 281.580972 
L 245.323091 281.754322 
L 246.713515 281.318581 
L 248.103938 281.147866 
L 249.494361 279.509705 
L 250.884784 278.650695 
L 252.275207 280.395529 
L 253.665631 280.784396 
L 255.056054 281.394528 
L 257.8369 281.584313 
L 260.617747 281.510016 
L 262.00817 280.785446 
L 263.398593 281.668882 
L 264.789016 281.370388 
L 266.179439 280.169786 
L 267.569862 280.245532 
L 268.960286 281.618846 
L 270.350709 281.143142 
L 271.741132 281.617393 
L 273.131555 281.512406 
L 274.521978 280.879683 
L 277.302825 281.584525 
L 278.693248 281.696715 
L 282.864518 281.76358 
L 285.645364 280.525666 
L 287.035787 281.400474 
L 288.42621 281.620135 
L 289.816634 281.311828 
L 293.987903 281.712602 
L 295.378326 281.454245 
L 296.768749 281.470734 
L 298.159173 281.318227 
L 299.549596 281.636034 
L 302.330442 281.247823 
L 303.720865 279.298524 
L 305.111289 280.563528 
L 306.501712 281.368344 
L 307.892135 281.576662 
L 310.672981 281.649154 
L 313.453828 281.508902 
L 314.844251 281.053327 
L 316.234674 281.6253 
L 317.625097 281.723532 
L 319.015521 280.859929 
L 320.405944 280.896803 
L 321.796367 281.5613 
L 323.18679 281.508984 
L 324.577213 281.74067 
L 325.967636 280.776024 
L 327.35806 281.55307 
L 328.748483 281.605754 
L 330.138906 281.350766 
L 331.529329 280.94241 
L 332.919752 281.680663 
L 334.310176 281.466978 
L 334.310176 281.466978 
" clip-path="url(#pdaec853edb)" style="fill: none; stroke: #000000; stroke-width: 1.5; stroke-linecap: square"/>
   </g>
   <g id="patch_3">
    <path d="M 43.78125 294.118125 
L 43.78125 22.318125 
" style="fill: none; stroke: #000000; stroke-width: 0.8; stroke-linejoin: miter; stroke-linecap: square"/>
   </g>
   <g id="patch_4">
    <path d="M 348.144886 294.118125 
L 348.144886 22.318125 
" style="fill: none; stroke: #000000; stroke-width: 0.8; stroke-linejoin: miter; stroke-linecap: square"/>
   </g>
   <g id="patch_5">
    <path d="M 43.78125 294.118125 
L 348.144886 294.118125 
" style="fill: none; stroke: #000000; stroke-width: 0.8; stroke-linejoin: miter; stroke-linecap: square"/>
   </g>
   <g id="patch_6">
    <path d="M 43.78125 22.318125 
L 348.144886 22.318125 
" style="fill: none; stroke: #000000; stroke-width: 0.8; stroke-linejoin: miter; stroke-linecap: square"/>
   </g>
   <g id="text_19">
    <!-- Loss per Epoch -->
    <g transform="translate(150.648068 16.318125)scale(0.12 -0.12)">
     <defs>
      <path id="DejaVuSans-20" transform="scale(0.015625)"/>
      <path id="DejaVuSans-65" d="M 3597 1894 
L 3597 1613 
L 953 1613 
Q 991 1019 1311 708 
Q 1631 397 2203 397 
Q 2534 397 2845 478 
Q 3156 559 3463 722 
L 3463 178 
Q 3153 47 2828 -22 
Q 2503 -91 2169 -91 
Q 1331 -91 842 396 
Q 353 884 353 1716 
Q 353 2575 817 3079 
Q 1281 3584 2069 3584 
Q 2775 3584 3186 3129 
Q 3597 2675 3597 1894 
z
M 3022 2063 
Q 3016 2534 2758 2815 
Q 2500 3097 2075 3097 
Q 1594 3097 1305 2825 
Q 1016 2553 972 2059 
L 3022 2063 
z
" transform="scale(0.015625)"/>
      <path id="DejaVuSans-72" d="M 2631 2963 
Q 2534 3019 2420 3045 
Q 2306 3072 2169 3072 
Q 1681 3072 1420 2755 
Q 1159 2438 1159 1844 
L 1159 0 
L 581 0 
L 581 3500 
L 1159 3500 
L 1159 2956 
Q 1341 3275 1631 3429 
Q 1922 3584 2338 3584 
Q 2397 3584 2469 3576 
Q 2541 3569 2628 3553 
L 2631 2963 
z
" transform="scale(0.015625)"/>
     </defs>
     <use xlink:href="#DejaVuSans-4c"/>
     <use xlink:href="#DejaVuSans-6f" x="53.962891"/>
     <use xlink:href="#DejaVuSans-73" x="115.144531"/>
     <use xlink:href="#DejaVuSans-73" x="167.244141"/>
     <use xlink:href="#DejaVuSans-20" x="219.34375"/>
     <use xlink:href="#DejaVuSans-70" x="251.130859"/>
     <use xlink:href="#DejaVuSans-65" x="314.607422"/>
     <use xlink:href="#DejaVuSans-72" x="376.130859"/>
     <use xlink:href="#DejaVuSans-20" x="417.244141"/>
     <use xlink:href="#DejaVuSans-45" x="449.03125"/>
     <use xlink:href="#DejaVuSans-70" x="512.214844"/>
     <use xlink:href="#DejaVuSans-6f" x="575.691406"/>
     <use xlink:href="#DejaVuSans-63" x="636.873047"/>
     <use xlink:href="#DejaVuSans-68" x="691.853516"/>
    </g>
   </g>
  </g>
  <g id="axes_2">
   <g id="patch_7">
    <path d="M 409.017614 294.118125 
L 713.38125 294.118125 
L 713.38125 22.318125 
L 409.017614 22.318125 
z
" style="fill: #ffffff"/>
   </g>
   <g id="matplotlib.axis_3">
    <g id="xtick_10">
     <g id="line2d_34">
      <path d="M 422.852324 294.118125 
L 422.852324 22.318125 
" clip-path="url(#peda7e77090)" style="fill: none; stroke: #b0b0b0; stroke-width: 0.8; stroke-linecap: square"/>
     </g>
     <g id="line2d_35">
      <g>
       <use xlink:href="#m2522a72715" x="422.852324" y="294.118125" style="stroke: #000000; stroke-width: 0.8"/>
      </g>
     </g>
     <g id="text_20">
      <!-- 0 -->
      <g transform="translate(419.671074 308.716563)scale(0.1 -0.1)">
       <use xlink:href="#DejaVuSans-30"/>
      </g>
     </g>
    </g>
    <g id="xtick_11">
     <g id="line2d_36">
      <path d="M 457.612904 294.118125 
L 457.612904 22.318125 
" clip-path="url(#peda7e77090)" style="fill: none; stroke: #b0b0b0; stroke-width: 0.8; stroke-linecap: square"/>
     </g>
     <g id="line2d_37">
      <g>
       <use xlink:href="#m2522a72715" x="457.612904" y="294.118125" style="stroke: #000000; stroke-width: 0.8"/>
      </g>
     </g>
     <g id="text_21">
      <!-- 25 -->
      <g transform="translate(451.250404 308.716563)scale(0.1 -0.1)">
       <use xlink:href="#DejaVuSans-32"/>
       <use xlink:href="#DejaVuSans-35" x="63.623047"/>
      </g>
     </g>
    </g>
    <g id="xtick_12">
     <g id="line2d_38">
      <path d="M 492.373484 294.118125 
L 492.373484 22.318125 
" clip-path="url(#peda7e77090)" style="fill: none; stroke: #b0b0b0; stroke-width: 0.8; stroke-linecap: square"/>
     </g>
     <g id="line2d_39">
      <g>
       <use xlink:href="#m2522a72715" x="492.373484" y="294.118125" style="stroke: #000000; stroke-width: 0.8"/>
      </g>
     </g>
     <g id="text_22">
      <!-- 50 -->
      <g transform="translate(486.010984 308.716563)scale(0.1 -0.1)">
       <use xlink:href="#DejaVuSans-35"/>
       <use xlink:href="#DejaVuSans-30" x="63.623047"/>
      </g>
     </g>
    </g>
    <g id="xtick_13">
     <g id="line2d_40">
      <path d="M 527.134064 294.118125 
L 527.134064 22.318125 
" clip-path="url(#peda7e77090)" style="fill: none; stroke: #b0b0b0; stroke-width: 0.8; stroke-linecap: square"/>
     </g>
     <g id="line2d_41">
      <g>
       <use xlink:href="#m2522a72715" x="527.134064" y="294.118125" style="stroke: #000000; stroke-width: 0.8"/>
      </g>
     </g>
     <g id="text_23">
      <!-- 75 -->
      <g transform="translate(520.771564 308.716563)scale(0.1 -0.1)">
       <use xlink:href="#DejaVuSans-37"/>
       <use xlink:href="#DejaVuSans-35" x="63.623047"/>
      </g>
     </g>
    </g>
    <g id="xtick_14">
     <g id="line2d_42">
      <path d="M 561.894643 294.118125 
L 561.894643 22.318125 
" clip-path="url(#peda7e77090)" style="fill: none; stroke: #b0b0b0; stroke-width: 0.8; stroke-linecap: square"/>
     </g>
     <g id="line2d_43">
      <g>
       <use xlink:href="#m2522a72715" x="561.894643" y="294.118125" style="stroke: #000000; stroke-width: 0.8"/>
      </g>
     </g>
     <g id="text_24">
      <!-- 100 -->
      <g transform="translate(552.350893 308.716563)scale(0.1 -0.1)">
       <use xlink:href="#DejaVuSans-31"/>
       <use xlink:href="#DejaVuSans-30" x="63.623047"/>
       <use xlink:href="#DejaVuSans-30" x="127.246094"/>
      </g>
     </g>
    </g>
    <g id="xtick_15">
     <g id="line2d_44">
      <path d="M 596.655223 294.118125 
L 596.655223 22.318125 
" clip-path="url(#peda7e77090)" style="fill: none; stroke: #b0b0b0; stroke-width: 0.8; stroke-linecap: square"/>
     </g>
     <g id="line2d_45">
      <g>
       <use xlink:href="#m2522a72715" x="596.655223" y="294.118125" style="stroke: #000000; stroke-width: 0.8"/>
      </g>
     </g>
     <g id="text_25">
      <!-- 125 -->
      <g transform="translate(587.111473 308.716563)scale(0.1 -0.1)">
       <use xlink:href="#DejaVuSans-31"/>
       <use xlink:href="#DejaVuSans-32" x="63.623047"/>
       <use xlink:href="#DejaVuSans-35" x="127.246094"/>
      </g>
     </g>
    </g>
    <g id="xtick_16">
     <g id="line2d_46">
      <path d="M 631.415803 294.118125 
L 631.415803 22.318125 
" clip-path="url(#peda7e77090)" style="fill: none; stroke: #b0b0b0; stroke-width: 0.8; stroke-linecap: square"/>
     </g>
     <g id="line2d_47">
      <g>
       <use xlink:href="#m2522a72715" x="631.415803" y="294.118125" style="stroke: #000000; stroke-width: 0.8"/>
      </g>
     </g>
     <g id="text_26">
      <!-- 150 -->
      <g transform="translate(621.872053 308.716563)scale(0.1 -0.1)">
       <use xlink:href="#DejaVuSans-31"/>
       <use xlink:href="#DejaVuSans-35" x="63.623047"/>
       <use xlink:href="#DejaVuSans-30" x="127.246094"/>
      </g>
     </g>
    </g>
    <g id="xtick_17">
     <g id="line2d_48">
      <path d="M 666.176383 294.118125 
L 666.176383 22.318125 
" clip-path="url(#peda7e77090)" style="fill: none; stroke: #b0b0b0; stroke-width: 0.8; stroke-linecap: square"/>
     </g>
     <g id="line2d_49">
      <g>
       <use xlink:href="#m2522a72715" x="666.176383" y="294.118125" style="stroke: #000000; stroke-width: 0.8"/>
      </g>
     </g>
     <g id="text_27">
      <!-- 175 -->
      <g transform="translate(656.632633 308.716563)scale(0.1 -0.1)">
       <use xlink:href="#DejaVuSans-31"/>
       <use xlink:href="#DejaVuSans-37" x="63.623047"/>
       <use xlink:href="#DejaVuSans-35" x="127.246094"/>
      </g>
     </g>
    </g>
    <g id="xtick_18">
     <g id="line2d_50">
      <path d="M 700.936962 294.118125 
L 700.936962 22.318125 
" clip-path="url(#peda7e77090)" style="fill: none; stroke: #b0b0b0; stroke-width: 0.8; stroke-linecap: square"/>
     </g>
     <g id="line2d_51">
      <g>
       <use xlink:href="#m2522a72715" x="700.936962" y="294.118125" style="stroke: #000000; stroke-width: 0.8"/>
      </g>
     </g>
     <g id="text_28">
      <!-- 200 -->
      <g transform="translate(691.393212 308.716563)scale(0.1 -0.1)">
       <use xlink:href="#DejaVuSans-32"/>
       <use xlink:href="#DejaVuSans-30" x="63.623047"/>
       <use xlink:href="#DejaVuSans-30" x="127.246094"/>
      </g>
     </g>
    </g>
    <g id="text_29">
     <!-- Epoch -->
     <g transform="translate(545.888494 322.394687)scale(0.1 -0.1)">
      <use xlink:href="#DejaVuSans-45"/>
      <use xlink:href="#DejaVuSans-70" x="63.183594"/>
      <use xlink:href="#DejaVuSans-6f" x="126.660156"/>
      <use xlink:href="#DejaVuSans-63" x="187.841797"/>
      <use xlink:href="#DejaVuSans-68" x="242.822266"/>
     </g>
    </g>
   </g>
   <g id="matplotlib.axis_4">
    <g id="ytick_8">
     <g id="line2d_52">
      <path d="M 409.017614 248.077137 
L 713.38125 248.077137 
" clip-path="url(#peda7e77090)" style="fill: none; stroke: #b0b0b0; stroke-width: 0.8; stroke-linecap: square"/>
     </g>
     <g id="line2d_53">
      <g>
       <use xlink:href="#ma948bdf46e" x="409.017614" y="248.077137" style="stroke: #000000; stroke-width: 0.8"/>
      </g>
     </g>
     <g id="text_30">
      <!-- 80 -->
      <g transform="translate(389.292614 251.876356)scale(0.1 -0.1)">
       <defs>
        <path id="DejaVuSans-38" d="M 2034 2216 
Q 1584 2216 1326 1975 
Q 1069 1734 1069 1313 
Q 1069 891 1326 650 
Q 1584 409 2034 409 
Q 2484 409 2743 651 
Q 3003 894 3003 1313 
Q 3003 1734 2745 1975 
Q 2488 2216 2034 2216 
z
M 1403 2484 
Q 997 2584 770 2862 
Q 544 3141 544 3541 
Q 544 4100 942 4425 
Q 1341 4750 2034 4750 
Q 2731 4750 3128 4425 
Q 3525 4100 3525 3541 
Q 3525 3141 3298 2862 
Q 3072 2584 2669 2484 
Q 3125 2378 3379 2068 
Q 3634 1759 3634 1313 
Q 3634 634 3220 271 
Q 2806 -91 2034 -91 
Q 1263 -91 848 271 
Q 434 634 434 1313 
Q 434 1759 690 2068 
Q 947 2378 1403 2484 
z
M 1172 3481 
Q 1172 3119 1398 2916 
Q 1625 2713 2034 2713 
Q 2441 2713 2670 2916 
Q 2900 3119 2900 3481 
Q 2900 3844 2670 4047 
Q 2441 4250 2034 4250 
Q 1625 4250 1398 4047 
Q 1172 3844 1172 3481 
z
" transform="scale(0.015625)"/>
       </defs>
       <use xlink:href="#DejaVuSans-38"/>
       <use xlink:href="#DejaVuSans-30" x="63.623047"/>
      </g>
     </g>
    </g>
    <g id="ytick_9">
     <g id="line2d_54">
      <path d="M 409.017614 194.726021 
L 713.38125 194.726021 
" clip-path="url(#peda7e77090)" style="fill: none; stroke: #b0b0b0; stroke-width: 0.8; stroke-linecap: square"/>
     </g>
     <g id="line2d_55">
      <g>
       <use xlink:href="#ma948bdf46e" x="409.017614" y="194.726021" style="stroke: #000000; stroke-width: 0.8"/>
      </g>
     </g>
     <g id="text_31">
      <!-- 85 -->
      <g transform="translate(389.292614 198.525239)scale(0.1 -0.1)">
       <use xlink:href="#DejaVuSans-38"/>
       <use xlink:href="#DejaVuSans-35" x="63.623047"/>
      </g>
     </g>
    </g>
    <g id="ytick_10">
     <g id="line2d_56">
      <path d="M 409.017614 141.374904 
L 713.38125 141.374904 
" clip-path="url(#peda7e77090)" style="fill: none; stroke: #b0b0b0; stroke-width: 0.8; stroke-linecap: square"/>
     </g>
     <g id="line2d_57">
      <g>
       <use xlink:href="#ma948bdf46e" x="409.017614" y="141.374904" style="stroke: #000000; stroke-width: 0.8"/>
      </g>
     </g>
     <g id="text_32">
      <!-- 90 -->
      <g transform="translate(389.292614 145.174123)scale(0.1 -0.1)">
       <defs>
        <path id="DejaVuSans-39" d="M 703 97 
L 703 672 
Q 941 559 1184 500 
Q 1428 441 1663 441 
Q 2288 441 2617 861 
Q 2947 1281 2994 2138 
Q 2813 1869 2534 1725 
Q 2256 1581 1919 1581 
Q 1219 1581 811 2004 
Q 403 2428 403 3163 
Q 403 3881 828 4315 
Q 1253 4750 1959 4750 
Q 2769 4750 3195 4129 
Q 3622 3509 3622 2328 
Q 3622 1225 3098 567 
Q 2575 -91 1691 -91 
Q 1453 -91 1209 -44 
Q 966 3 703 97 
z
M 1959 2075 
Q 2384 2075 2632 2365 
Q 2881 2656 2881 3163 
Q 2881 3666 2632 3958 
Q 2384 4250 1959 4250 
Q 1534 4250 1286 3958 
Q 1038 3666 1038 3163 
Q 1038 2656 1286 2365 
Q 1534 2075 1959 2075 
z
" transform="scale(0.015625)"/>
       </defs>
       <use xlink:href="#DejaVuSans-39"/>
       <use xlink:href="#DejaVuSans-30" x="63.623047"/>
      </g>
     </g>
    </g>
    <g id="ytick_11">
     <g id="line2d_58">
      <path d="M 409.017614 88.023787 
L 713.38125 88.023787 
" clip-path="url(#peda7e77090)" style="fill: none; stroke: #b0b0b0; stroke-width: 0.8; stroke-linecap: square"/>
     </g>
     <g id="line2d_59">
      <g>
       <use xlink:href="#ma948bdf46e" x="409.017614" y="88.023787" style="stroke: #000000; stroke-width: 0.8"/>
      </g>
     </g>
     <g id="text_33">
      <!-- 95 -->
      <g transform="translate(389.292614 91.823006)scale(0.1 -0.1)">
       <use xlink:href="#DejaVuSans-39"/>
       <use xlink:href="#DejaVuSans-35" x="63.623047"/>
      </g>
     </g>
    </g>
    <g id="ytick_12">
     <g id="line2d_60">
      <path d="M 409.017614 34.67267 
L 713.38125 34.67267 
" clip-path="url(#peda7e77090)" style="fill: none; stroke: #b0b0b0; stroke-width: 0.8; stroke-linecap: square"/>
     </g>
     <g id="line2d_61">
      <g>
       <use xlink:href="#ma948bdf46e" x="409.017614" y="34.67267" style="stroke: #000000; stroke-width: 0.8"/>
      </g>
     </g>
     <g id="text_34">
      <!-- 100 -->
      <g transform="translate(382.930114 38.471889)scale(0.1 -0.1)">
       <use xlink:href="#DejaVuSans-31"/>
       <use xlink:href="#DejaVuSans-30" x="63.623047"/>
       <use xlink:href="#DejaVuSans-30" x="127.246094"/>
      </g>
     </g>
    </g>
    <g id="text_35">
     <!-- Accuracy (%) -->
     <g transform="translate(376.850426 191.287656)rotate(-90)scale(0.1 -0.1)">
      <defs>
       <path id="DejaVuSans-41" d="M 2188 4044 
L 1331 1722 
L 3047 1722 
L 2188 4044 
z
M 1831 4666 
L 2547 4666 
L 4325 0 
L 3669 0 
L 3244 1197 
L 1141 1197 
L 716 0 
L 50 0 
L 1831 4666 
z
" transform="scale(0.015625)"/>
       <path id="DejaVuSans-75" d="M 544 1381 
L 544 3500 
L 1119 3500 
L 1119 1403 
Q 1119 906 1312 657 
Q 1506 409 1894 409 
Q 2359 409 2629 706 
Q 2900 1003 2900 1516 
L 2900 3500 
L 3475 3500 
L 3475 0 
L 2900 0 
L 2900 538 
Q 2691 219 2414 64 
Q 2138 -91 1772 -91 
Q 1169 -91 856 284 
Q 544 659 544 1381 
z
M 1991 3584 
L 1991 3584 
z
" transform="scale(0.015625)"/>
       <path id="DejaVuSans-61" d="M 2194 1759 
Q 1497 1759 1228 1600 
Q 959 1441 959 1056 
Q 959 750 1161 570 
Q 1363 391 1709 391 
Q 2188 391 2477 730 
Q 2766 1069 2766 1631 
L 2766 1759 
L 2194 1759 
z
M 3341 1997 
L 3341 0 
L 2766 0 
L 2766 531 
Q 2569 213 2275 61 
Q 1981 -91 1556 -91 
Q 1019 -91 701 211 
Q 384 513 384 1019 
Q 384 1609 779 1909 
Q 1175 2209 1959 2209 
L 2766 2209 
L 2766 2266 
Q 2766 2663 2505 2880 
Q 2244 3097 1772 3097 
Q 1472 3097 1187 3025 
Q 903 2953 641 2809 
L 641 3341 
Q 956 3463 1253 3523 
Q 1550 3584 1831 3584 
Q 2591 3584 2966 3190 
Q 3341 2797 3341 1997 
z
" transform="scale(0.015625)"/>
       <path id="DejaVuSans-79" d="M 2059 -325 
Q 1816 -950 1584 -1140 
Q 1353 -1331 966 -1331 
L 506 -1331 
L 506 -850 
L 844 -850 
Q 1081 -850 1212 -737 
Q 1344 -625 1503 -206 
L 1606 56 
L 191 3500 
L 800 3500 
L 1894 763 
L 2988 3500 
L 3597 3500 
L 2059 -325 
z
" transform="scale(0.015625)"/>
       <path id="DejaVuSans-28" d="M 1984 4856 
Q 1566 4138 1362 3434 
Q 1159 2731 1159 2009 
Q 1159 1288 1364 580 
Q 1569 -128 1984 -844 
L 1484 -844 
Q 1016 -109 783 600 
Q 550 1309 550 2009 
Q 550 2706 781 3412 
Q 1013 4119 1484 4856 
L 1984 4856 
z
" transform="scale(0.015625)"/>
       <path id="DejaVuSans-25" d="M 4653 2053 
Q 4381 2053 4226 1822 
Q 4072 1591 4072 1178 
Q 4072 772 4226 539 
Q 4381 306 4653 306 
Q 4919 306 5073 539 
Q 5228 772 5228 1178 
Q 5228 1588 5073 1820 
Q 4919 2053 4653 2053 
z
M 4653 2450 
Q 5147 2450 5437 2106 
Q 5728 1763 5728 1178 
Q 5728 594 5436 251 
Q 5144 -91 4653 -91 
Q 4153 -91 3862 251 
Q 3572 594 3572 1178 
Q 3572 1766 3864 2108 
Q 4156 2450 4653 2450 
z
M 1428 4353 
Q 1159 4353 1004 4120 
Q 850 3888 850 3481 
Q 850 3069 1003 2837 
Q 1156 2606 1428 2606 
Q 1700 2606 1854 2837 
Q 2009 3069 2009 3481 
Q 2009 3884 1853 4118 
Q 1697 4353 1428 4353 
z
M 4250 4750 
L 4750 4750 
L 1831 -91 
L 1331 -91 
L 4250 4750 
z
M 1428 4750 
Q 1922 4750 2215 4408 
Q 2509 4066 2509 3481 
Q 2509 2891 2217 2550 
Q 1925 2209 1428 2209 
Q 931 2209 642 2551 
Q 353 2894 353 3481 
Q 353 4063 643 4406 
Q 934 4750 1428 4750 
z
" transform="scale(0.015625)"/>
       <path id="DejaVuSans-29" d="M 513 4856 
L 1013 4856 
Q 1481 4119 1714 3412 
Q 1947 2706 1947 2009 
Q 1947 1309 1714 600 
Q 1481 -109 1013 -844 
L 513 -844 
Q 928 -128 1133 580 
Q 1338 1288 1338 2009 
Q 1338 2731 1133 3434 
Q 928 4138 513 4856 
z
" transform="scale(0.015625)"/>
      </defs>
      <use xlink:href="#DejaVuSans-41"/>
      <use xlink:href="#DejaVuSans-63" x="66.658203"/>
      <use xlink:href="#DejaVuSans-63" x="121.638672"/>
      <use xlink:href="#DejaVuSans-75" x="176.619141"/>
      <use xlink:href="#DejaVuSans-72" x="239.998047"/>
      <use xlink:href="#DejaVuSans-61" x="281.111328"/>
      <use xlink:href="#DejaVuSans-63" x="342.390625"/>
      <use xlink:href="#DejaVuSans-79" x="397.371094"/>
      <use xlink:href="#DejaVuSans-20" x="456.550781"/>
      <use xlink:href="#DejaVuSans-28" x="488.337891"/>
      <use xlink:href="#DejaVuSans-25" x="527.351562"/>
      <use xlink:href="#DejaVuSans-29" x="622.371094"/>
     </g>
    </g>
   </g>
   <g id="line2d_62">
    <path d="M 422.852324 281.76358 
L 424.242748 64.597175 
L 425.633171 51.344894 
L 427.023594 49.20743 
L 428.414017 44.077515 
L 429.80444 42.795036 
L 431.194864 44.077515 
L 432.585287 44.077515 
L 433.97571 41.94005 
L 435.366133 41.94005 
L 436.756556 40.230078 
L 438.146979 41.085064 
L 439.537403 41.512557 
L 440.927826 41.085064 
L 442.318249 40.230078 
L 443.708672 41.94005 
L 445.099095 40.230078 
L 446.489519 39.802586 
L 447.879942 40.230078 
L 449.270365 39.375093 
L 450.660788 39.802586 
L 452.051211 38.9476 
L 453.441635 39.375093 
L 454.832058 40.230078 
L 456.222481 40.230078 
L 457.612904 41.94005 
L 459.003327 39.375093 
L 460.393751 38.520107 
L 461.784174 38.092614 
L 463.174597 38.9476 
L 465.955443 38.9476 
L 467.345866 39.375093 
L 468.73629 39.375093 
L 470.126713 39.802586 
L 471.517136 39.802586 
L 472.907559 38.092614 
L 474.297982 38.092614 
L 475.688406 38.520107 
L 477.078829 38.520107 
L 478.469252 39.375093 
L 479.859675 38.9476 
L 481.250098 37.665121 
L 482.640522 38.9476 
L 484.030945 38.092614 
L 486.811791 38.9476 
L 488.202214 40.657571 
L 489.592638 37.665121 
L 490.983061 40.657571 
L 492.373484 39.375093 
L 493.763907 37.665121 
L 495.15433 38.520107 
L 496.544753 38.9476 
L 497.935177 37.665121 
L 499.3256 37.665121 
L 500.716023 35.955149 
L 503.496869 36.810135 
L 504.887293 38.520107 
L 506.277716 36.810135 
L 510.448985 36.810135 
L 511.839409 36.382642 
L 513.229832 35.527656 
L 514.620255 35.955149 
L 516.010678 35.955149 
L 517.401101 35.100163 
L 518.791525 36.382642 
L 520.181948 36.382642 
L 521.572371 37.237628 
L 522.962794 35.955149 
L 524.353217 35.955149 
L 525.74364 35.100163 
L 527.134064 36.382642 
L 528.524487 36.810135 
L 529.91491 35.527656 
L 531.305333 35.527656 
L 532.695756 35.100163 
L 534.08618 35.100163 
L 535.476603 35.527656 
L 538.257449 37.237628 
L 539.647872 36.382642 
L 541.038296 36.810135 
L 542.428719 35.955149 
L 543.819142 35.955149 
L 545.209565 36.810135 
L 546.599988 35.955149 
L 547.990412 34.67267 
L 549.380835 35.955149 
L 550.771258 35.100163 
L 552.161681 35.955149 
L 553.552104 35.100163 
L 554.942527 35.100163 
L 556.332951 34.67267 
L 557.723374 36.382642 
L 559.113797 35.527656 
L 560.50422 35.955149 
L 561.894643 35.100163 
L 563.285067 35.527656 
L 564.67549 35.100163 
L 566.065913 35.955149 
L 567.456336 34.67267 
L 568.846759 35.955149 
L 570.237183 35.527656 
L 571.627606 36.382642 
L 573.018029 35.955149 
L 574.408452 35.100163 
L 575.798875 34.67267 
L 577.189299 35.955149 
L 578.579722 35.527656 
L 579.970145 34.67267 
L 581.360568 35.100163 
L 582.750991 35.100163 
L 584.141414 34.67267 
L 585.531838 35.527656 
L 586.922261 37.237628 
L 588.312684 34.67267 
L 598.045646 34.67267 
L 599.43607 36.810135 
L 600.826493 38.520107 
L 602.216916 35.955149 
L 603.607339 36.810135 
L 604.997762 35.100163 
L 606.388186 34.67267 
L 610.559455 34.67267 
L 611.949878 35.100163 
L 613.340301 35.100163 
L 614.730725 35.955149 
L 616.121148 37.665121 
L 617.511571 36.382642 
L 618.901994 35.527656 
L 621.682841 34.67267 
L 624.463687 34.67267 
L 625.85411 35.100163 
L 627.244533 35.100163 
L 628.634957 34.67267 
L 632.806226 35.955149 
L 634.196649 34.67267 
L 635.587073 35.527656 
L 636.977496 34.67267 
L 639.758342 35.527656 
L 641.148765 35.527656 
L 642.539188 34.67267 
L 648.100881 34.67267 
L 649.491304 35.527656 
L 650.881728 35.955149 
L 652.272151 35.100163 
L 653.662574 34.67267 
L 655.052997 35.100163 
L 656.44342 35.100163 
L 657.833844 34.67267 
L 659.224267 34.67267 
L 660.61469 35.100163 
L 663.395536 35.100163 
L 664.785959 34.67267 
L 666.176383 35.100163 
L 667.566806 35.100163 
L 668.957229 35.955149 
L 670.347652 35.527656 
L 671.738075 34.67267 
L 677.299768 34.67267 
L 678.690191 35.100163 
L 680.080615 35.100163 
L 681.471038 34.67267 
L 682.861461 34.67267 
L 685.642307 35.527656 
L 688.423154 34.67267 
L 689.813577 34.67267 
L 691.204 35.100163 
L 695.37527 35.100163 
L 696.765693 35.527656 
L 698.156116 34.67267 
L 699.546539 35.100163 
L 699.546539 35.100163 
" clip-path="url(#peda7e77090)" style="fill: none; stroke: #1f77b4; stroke-width: 1.5; stroke-linecap: square"/>
   </g>
   <g id="line2d_63">
    <path d="M 422.852324 79.687688 
L 424.242748 59.681006 
L 425.633171 46.34324 
L 427.023594 49.677697 
L 428.414017 46.34324 
L 429.80444 46.34324 
L 431.194864 48.010437 
L 432.585287 48.010437 
L 433.97571 46.34324 
L 435.366133 48.010437 
L 436.756556 44.675979 
L 439.537403 48.010437 
L 442.318249 44.675979 
L 443.708672 44.675979 
L 445.099095 46.34324 
L 446.489519 44.675979 
L 452.051211 44.675979 
L 453.441635 46.34324 
L 454.832058 44.675979 
L 456.222481 53.012091 
L 457.612904 44.675979 
L 459.003327 41.341585 
L 460.393751 43.008782 
L 461.784174 43.008782 
L 463.174597 44.675979 
L 470.126713 44.675979 
L 471.517136 46.34324 
L 472.907559 44.675979 
L 474.297982 44.675979 
L 475.688406 43.008782 
L 477.078829 44.675979 
L 478.469252 44.675979 
L 479.859675 48.010437 
L 484.030945 43.008782 
L 485.421368 44.675979 
L 486.811791 44.675979 
L 488.202214 43.008782 
L 489.592638 44.675979 
L 490.983061 43.008782 
L 492.373484 44.675979 
L 493.763907 43.008782 
L 495.15433 48.010437 
L 496.544753 39.674325 
L 497.935177 43.008782 
L 500.716023 43.008782 
L 502.106446 46.34324 
L 503.496869 39.674325 
L 504.887293 41.341585 
L 506.277716 41.341585 
L 507.668139 39.674325 
L 509.058562 41.341585 
L 511.839409 41.341585 
L 513.229832 39.674325 
L 514.620255 41.341585 
L 516.010678 39.674325 
L 517.401101 39.674325 
L 518.791525 41.341585 
L 520.181948 41.341585 
L 521.572371 39.674325 
L 522.962794 39.674325 
L 524.353217 41.341585 
L 527.134064 41.341585 
L 528.524487 43.008782 
L 529.91491 41.341585 
L 535.476603 41.341585 
L 536.867026 44.675979 
L 538.257449 44.675979 
L 539.647872 41.341585 
L 542.428719 41.341585 
L 543.819142 39.674325 
L 546.599988 39.674325 
L 547.990412 41.341585 
L 549.380835 41.341585 
L 550.771258 43.008782 
L 552.161681 39.674325 
L 556.332951 39.674325 
L 557.723374 41.341585 
L 559.113797 39.674325 
L 563.285067 39.674325 
L 564.67549 41.341585 
L 566.065913 39.674325 
L 567.456336 39.674325 
L 568.846759 41.341585 
L 570.237183 39.674325 
L 571.627606 39.674325 
L 573.018029 41.341585 
L 574.408452 39.674325 
L 575.798875 39.674325 
L 577.189299 41.341585 
L 581.360568 41.341585 
L 582.750991 39.674325 
L 584.141414 41.341585 
L 585.531838 41.341585 
L 586.922261 43.008782 
L 598.045646 43.008782 
L 599.43607 41.341585 
L 600.826493 44.675979 
L 603.607339 41.341585 
L 604.997762 44.675979 
L 606.388186 43.008782 
L 607.778609 44.675979 
L 609.169032 43.008782 
L 610.559455 43.008782 
L 611.949878 44.675979 
L 613.340301 48.010437 
L 614.730725 48.010437 
L 616.121148 41.341585 
L 618.901994 41.341585 
L 620.292417 39.674325 
L 623.073264 39.674325 
L 624.463687 41.341585 
L 625.85411 39.674325 
L 628.634957 43.008782 
L 630.02538 41.341585 
L 631.415803 41.341585 
L 632.806226 43.008782 
L 634.196649 43.008782 
L 635.587073 44.675979 
L 636.977496 43.008782 
L 638.367919 43.008782 
L 639.758342 41.341585 
L 641.148765 41.341585 
L 642.539188 43.008782 
L 643.929612 43.008782 
L 645.320035 41.341585 
L 646.710458 43.008782 
L 648.100881 43.008782 
L 649.491304 44.675979 
L 650.881728 41.341585 
L 653.662574 41.341585 
L 655.052997 43.008782 
L 656.44342 43.008782 
L 657.833844 41.341585 
L 659.224267 43.008782 
L 660.61469 43.008782 
L 662.005113 48.010437 
L 663.395536 44.675979 
L 664.785959 44.675979 
L 667.566806 41.341585 
L 668.957229 43.008782 
L 670.347652 46.34324 
L 671.738075 43.008782 
L 673.128499 41.341585 
L 675.909345 41.341585 
L 677.299768 39.674325 
L 678.690191 41.341585 
L 680.080615 41.341585 
L 681.471038 43.008782 
L 682.861461 43.008782 
L 684.251884 41.341585 
L 685.642307 44.675979 
L 687.032731 43.008782 
L 691.204 43.008782 
L 692.594423 41.341585 
L 693.984846 43.008782 
L 695.37527 43.008782 
L 696.765693 44.675979 
L 698.156116 43.008782 
L 699.546539 44.675979 
L 699.546539 44.675979 
" clip-path="url(#peda7e77090)" style="fill: none; stroke: #ff7f0e; stroke-width: 1.5; stroke-linecap: square"/>
   </g>
   <g id="patch_8">
    <path d="M 409.017614 294.118125 
L 409.017614 22.318125 
" style="fill: none; stroke: #000000; stroke-width: 0.8; stroke-linejoin: miter; stroke-linecap: square"/>
   </g>
   <g id="patch_9">
    <path d="M 713.38125 294.118125 
L 713.38125 22.318125 
" style="fill: none; stroke: #000000; stroke-width: 0.8; stroke-linejoin: miter; stroke-linecap: square"/>
   </g>
   <g id="patch_10">
    <path d="M 409.017614 294.118125 
L 713.38125 294.118125 
" style="fill: none; stroke: #000000; stroke-width: 0.8; stroke-linejoin: miter; stroke-linecap: square"/>
   </g>
   <g id="patch_11">
    <path d="M 409.017614 22.318125 
L 713.38125 22.318125 
" style="fill: none; stroke: #000000; stroke-width: 0.8; stroke-linejoin: miter; stroke-linecap: square"/>
   </g>
   <g id="text_36">
    <!-- Final accuracy: 99.06% -->
    <g transform="translate(492.021307 16.318125)scale(0.12 -0.12)">
     <defs>
      <path id="DejaVuSans-46" d="M 628 4666 
L 3309 4666 
L 3309 4134 
L 1259 4134 
L 1259 2759 
L 3109 2759 
L 3109 2228 
L 1259 2228 
L 1259 0 
L 628 0 
L 628 4666 
z
" transform="scale(0.015625)"/>
      <path id="DejaVuSans-69" d="M 603 3500 
L 1178 3500 
L 1178 0 
L 603 0 
L 603 3500 
z
M 603 4863 
L 1178 4863 
L 1178 4134 
L 603 4134 
L 603 4863 
z
" transform="scale(0.015625)"/>
      <path id="DejaVuSans-6e" d="M 3513 2113 
L 3513 0 
L 2938 0 
L 2938 2094 
Q 2938 2591 2744 2837 
Q 2550 3084 2163 3084 
Q 1697 3084 1428 2787 
Q 1159 2491 1159 1978 
L 1159 0 
L 581 0 
L 581 3500 
L 1159 3500 
L 1159 2956 
Q 1366 3272 1645 3428 
Q 1925 3584 2291 3584 
Q 2894 3584 3203 3211 
Q 3513 2838 3513 2113 
z
" transform="scale(0.015625)"/>
      <path id="DejaVuSans-6c" d="M 603 4863 
L 1178 4863 
L 1178 0 
L 603 0 
L 603 4863 
z
" transform="scale(0.015625)"/>
      <path id="DejaVuSans-3a" d="M 750 794 
L 1409 794 
L 1409 0 
L 750 0 
L 750 794 
z
M 750 3309 
L 1409 3309 
L 1409 2516 
L 750 2516 
L 750 3309 
z
" transform="scale(0.015625)"/>
     </defs>
     <use xlink:href="#DejaVuSans-46"/>
     <use xlink:href="#DejaVuSans-69" x="50.269531"/>
     <use xlink:href="#DejaVuSans-6e" x="78.052734"/>
     <use xlink:href="#DejaVuSans-61" x="141.431641"/>
     <use xlink:href="#DejaVuSans-6c" x="202.710938"/>
     <use xlink:href="#DejaVuSans-20" x="230.494141"/>
     <use xlink:href="#DejaVuSans-61" x="262.28125"/>
     <use xlink:href="#DejaVuSans-63" x="323.560547"/>
     <use xlink:href="#DejaVuSans-63" x="378.541016"/>
     <use xlink:href="#DejaVuSans-75" x="433.521484"/>
     <use xlink:href="#DejaVuSans-72" x="496.900391"/>
     <use xlink:href="#DejaVuSans-61" x="538.013672"/>
     <use xlink:href="#DejaVuSans-63" x="599.292969"/>
     <use xlink:href="#DejaVuSans-79" x="654.273438"/>
     <use xlink:href="#DejaVuSans-3a" x="706.203125"/>
     <use xlink:href="#DejaVuSans-20" x="739.894531"/>
     <use xlink:href="#DejaVuSans-39" x="771.681641"/>
     <use xlink:href="#DejaVuSans-39" x="835.304688"/>
     <use xlink:href="#DejaVuSans-2e" x="898.927734"/>
     <use xlink:href="#DejaVuSans-30" x="930.714844"/>
     <use xlink:href="#DejaVuSans-36" x="994.337891"/>
     <use xlink:href="#DejaVuSans-25" x="1057.960938"/>
    </g>
   </g>
   <g id="legend_1">
    <g id="patch_12">
     <path d="M 650.39375 289.118125 
L 706.38125 289.118125 
Q 708.38125 289.118125 708.38125 287.118125 
L 708.38125 258.761875 
Q 708.38125 256.761875 706.38125 256.761875 
L 650.39375 256.761875 
Q 648.39375 256.761875 648.39375 258.761875 
L 648.39375 287.118125 
Q 648.39375 289.118125 650.39375 289.118125 
z
" style="fill: #ffffff; opacity: 0.8; stroke: #cccccc; stroke-linejoin: miter"/>
    </g>
    <g id="line2d_64">
     <path d="M 652.39375 264.860312 
L 662.39375 264.860312 
L 672.39375 264.860312 
" style="fill: none; stroke: #1f77b4; stroke-width: 1.5; stroke-linecap: square"/>
    </g>
    <g id="text_37">
     <!-- Train -->
     <g transform="translate(680.39375 268.360312)scale(0.1 -0.1)">
      <defs>
       <path id="DejaVuSans-54" d="M -19 4666 
L 3928 4666 
L 3928 4134 
L 2272 4134 
L 2272 0 
L 1638 0 
L 1638 4134 
L -19 4134 
L -19 4666 
z
" transform="scale(0.015625)"/>
      </defs>
      <use xlink:href="#DejaVuSans-54"/>
      <use xlink:href="#DejaVuSans-72" x="46.333984"/>
      <use xlink:href="#DejaVuSans-61" x="87.447266"/>
      <use xlink:href="#DejaVuSans-69" x="148.726562"/>
      <use xlink:href="#DejaVuSans-6e" x="176.509766"/>
     </g>
    </g>
    <g id="line2d_65">
     <path d="M 652.39375 279.538437 
L 662.39375 279.538437 
L 672.39375 279.538437 
" style="fill: none; stroke: #ff7f0e; stroke-width: 1.5; stroke-linecap: square"/>
    </g>
    <g id="text_38">
     <!-- Test -->
     <g transform="translate(680.39375 283.038437)scale(0.1 -0.1)">
      <defs>
       <path id="DejaVuSans-74" d="M 1172 4494 
L 1172 3500 
L 2356 3500 
L 2356 3053 
L 1172 3053 
L 1172 1153 
Q 1172 725 1289 603 
Q 1406 481 1766 481 
L 2356 481 
L 2356 0 
L 1766 0 
Q 1100 0 847 248 
Q 594 497 594 1153 
L 594 3053 
L 172 3053 
L 172 3500 
L 594 3500 
L 594 4494 
L 1172 4494 
z
" transform="scale(0.015625)"/>
      </defs>
      <use xlink:href="#DejaVuSans-54"/>
      <use xlink:href="#DejaVuSans-65" x="44.083984"/>
      <use xlink:href="#DejaVuSans-73" x="105.607422"/>
      <use xlink:href="#DejaVuSans-74" x="157.707031"/>
     </g>
    </g>
   </g>
  </g>
 </g>
 <defs>
  <clipPath id="pdaec853edb">
   <rect x="43.78125" y="22.318125" width="304.363636" height="271.8"/>
  </clipPath>
  <clipPath id="peda7e77090">
   <rect x="409.017614" y="22.318125" width="304.363636" height="271.8"/>
  </clipPath>
 </defs>
</svg>
